G04 EAGLE Gerber RS-274X export*
G75*
%MOMM*%
%FSLAX34Y34*%
%LPD*%
%INBoard Outline*%
%IPPOS*%
%AMOC8*
5,1,8,0,0,1.08239X$1,22.5*%
G01*
%ADD10C,0.000000*%
%ADD11C,0.203200*%


D10*
X0Y0D02*
X707900Y0D01*
D11*
X707900Y673000D01*
X0Y673000D01*
X0Y0D01*
D10*
X407670Y322580D02*
X407673Y322861D01*
X407684Y323141D01*
X407701Y323421D01*
X407725Y323700D01*
X407756Y323979D01*
X407794Y324257D01*
X407838Y324534D01*
X407890Y324810D01*
X407948Y325084D01*
X408013Y325357D01*
X408084Y325629D01*
X408162Y325898D01*
X408247Y326165D01*
X408338Y326431D01*
X408436Y326694D01*
X408540Y326954D01*
X408651Y327212D01*
X408767Y327467D01*
X408890Y327719D01*
X409020Y327968D01*
X409155Y328214D01*
X409296Y328456D01*
X409443Y328695D01*
X409596Y328930D01*
X409755Y329161D01*
X409919Y329389D01*
X410089Y329612D01*
X410264Y329831D01*
X410445Y330046D01*
X410631Y330256D01*
X410822Y330461D01*
X411018Y330662D01*
X411219Y330858D01*
X411424Y331049D01*
X411634Y331235D01*
X411849Y331416D01*
X412068Y331591D01*
X412291Y331761D01*
X412519Y331925D01*
X412750Y332084D01*
X412985Y332237D01*
X413224Y332384D01*
X413466Y332525D01*
X413712Y332660D01*
X413961Y332790D01*
X414213Y332913D01*
X414468Y333029D01*
X414726Y333140D01*
X414986Y333244D01*
X415249Y333342D01*
X415515Y333433D01*
X415782Y333518D01*
X416051Y333596D01*
X416323Y333667D01*
X416596Y333732D01*
X416870Y333790D01*
X417146Y333842D01*
X417423Y333886D01*
X417701Y333924D01*
X417980Y333955D01*
X418259Y333979D01*
X418539Y333996D01*
X418819Y334007D01*
X419100Y334010D01*
X419381Y334007D01*
X419661Y333996D01*
X419941Y333979D01*
X420220Y333955D01*
X420499Y333924D01*
X420777Y333886D01*
X421054Y333842D01*
X421330Y333790D01*
X421604Y333732D01*
X421877Y333667D01*
X422149Y333596D01*
X422418Y333518D01*
X422685Y333433D01*
X422951Y333342D01*
X423214Y333244D01*
X423474Y333140D01*
X423732Y333029D01*
X423987Y332913D01*
X424239Y332790D01*
X424488Y332660D01*
X424734Y332525D01*
X424976Y332384D01*
X425215Y332237D01*
X425450Y332084D01*
X425681Y331925D01*
X425909Y331761D01*
X426132Y331591D01*
X426351Y331416D01*
X426566Y331235D01*
X426776Y331049D01*
X426981Y330858D01*
X427182Y330662D01*
X427378Y330461D01*
X427569Y330256D01*
X427755Y330046D01*
X427936Y329831D01*
X428111Y329612D01*
X428281Y329389D01*
X428445Y329161D01*
X428604Y328930D01*
X428757Y328695D01*
X428904Y328456D01*
X429045Y328214D01*
X429180Y327968D01*
X429310Y327719D01*
X429433Y327467D01*
X429549Y327212D01*
X429660Y326954D01*
X429764Y326694D01*
X429862Y326431D01*
X429953Y326165D01*
X430038Y325898D01*
X430116Y325629D01*
X430187Y325357D01*
X430252Y325084D01*
X430310Y324810D01*
X430362Y324534D01*
X430406Y324257D01*
X430444Y323979D01*
X430475Y323700D01*
X430499Y323421D01*
X430516Y323141D01*
X430527Y322861D01*
X430530Y322580D01*
X430527Y322299D01*
X430516Y322019D01*
X430499Y321739D01*
X430475Y321460D01*
X430444Y321181D01*
X430406Y320903D01*
X430362Y320626D01*
X430310Y320350D01*
X430252Y320076D01*
X430187Y319803D01*
X430116Y319531D01*
X430038Y319262D01*
X429953Y318995D01*
X429862Y318729D01*
X429764Y318466D01*
X429660Y318206D01*
X429549Y317948D01*
X429433Y317693D01*
X429310Y317441D01*
X429180Y317192D01*
X429045Y316946D01*
X428904Y316704D01*
X428757Y316465D01*
X428604Y316230D01*
X428445Y315999D01*
X428281Y315771D01*
X428111Y315548D01*
X427936Y315329D01*
X427755Y315114D01*
X427569Y314904D01*
X427378Y314699D01*
X427182Y314498D01*
X426981Y314302D01*
X426776Y314111D01*
X426566Y313925D01*
X426351Y313744D01*
X426132Y313569D01*
X425909Y313399D01*
X425681Y313235D01*
X425450Y313076D01*
X425215Y312923D01*
X424976Y312776D01*
X424734Y312635D01*
X424488Y312500D01*
X424239Y312370D01*
X423987Y312247D01*
X423732Y312131D01*
X423474Y312020D01*
X423214Y311916D01*
X422951Y311818D01*
X422685Y311727D01*
X422418Y311642D01*
X422149Y311564D01*
X421877Y311493D01*
X421604Y311428D01*
X421330Y311370D01*
X421054Y311318D01*
X420777Y311274D01*
X420499Y311236D01*
X420220Y311205D01*
X419941Y311181D01*
X419661Y311164D01*
X419381Y311153D01*
X419100Y311150D01*
X418819Y311153D01*
X418539Y311164D01*
X418259Y311181D01*
X417980Y311205D01*
X417701Y311236D01*
X417423Y311274D01*
X417146Y311318D01*
X416870Y311370D01*
X416596Y311428D01*
X416323Y311493D01*
X416051Y311564D01*
X415782Y311642D01*
X415515Y311727D01*
X415249Y311818D01*
X414986Y311916D01*
X414726Y312020D01*
X414468Y312131D01*
X414213Y312247D01*
X413961Y312370D01*
X413712Y312500D01*
X413466Y312635D01*
X413224Y312776D01*
X412985Y312923D01*
X412750Y313076D01*
X412519Y313235D01*
X412291Y313399D01*
X412068Y313569D01*
X411849Y313744D01*
X411634Y313925D01*
X411424Y314111D01*
X411219Y314302D01*
X411018Y314498D01*
X410822Y314699D01*
X410631Y314904D01*
X410445Y315114D01*
X410264Y315329D01*
X410089Y315548D01*
X409919Y315771D01*
X409755Y315999D01*
X409596Y316230D01*
X409443Y316465D01*
X409296Y316704D01*
X409155Y316946D01*
X409020Y317192D01*
X408890Y317441D01*
X408767Y317693D01*
X408651Y317948D01*
X408540Y318206D01*
X408436Y318466D01*
X408338Y318729D01*
X408247Y318995D01*
X408162Y319262D01*
X408084Y319531D01*
X408013Y319803D01*
X407948Y320076D01*
X407890Y320350D01*
X407838Y320626D01*
X407794Y320903D01*
X407756Y321181D01*
X407725Y321460D01*
X407701Y321739D01*
X407684Y322019D01*
X407673Y322299D01*
X407670Y322580D01*
X631190Y187960D02*
X631193Y188241D01*
X631204Y188521D01*
X631221Y188801D01*
X631245Y189080D01*
X631276Y189359D01*
X631314Y189637D01*
X631358Y189914D01*
X631410Y190190D01*
X631468Y190464D01*
X631533Y190737D01*
X631604Y191009D01*
X631682Y191278D01*
X631767Y191545D01*
X631858Y191811D01*
X631956Y192074D01*
X632060Y192334D01*
X632171Y192592D01*
X632287Y192847D01*
X632410Y193099D01*
X632540Y193348D01*
X632675Y193594D01*
X632816Y193836D01*
X632963Y194075D01*
X633116Y194310D01*
X633275Y194541D01*
X633439Y194769D01*
X633609Y194992D01*
X633784Y195211D01*
X633965Y195426D01*
X634151Y195636D01*
X634342Y195841D01*
X634538Y196042D01*
X634739Y196238D01*
X634944Y196429D01*
X635154Y196615D01*
X635369Y196796D01*
X635588Y196971D01*
X635811Y197141D01*
X636039Y197305D01*
X636270Y197464D01*
X636505Y197617D01*
X636744Y197764D01*
X636986Y197905D01*
X637232Y198040D01*
X637481Y198170D01*
X637733Y198293D01*
X637988Y198409D01*
X638246Y198520D01*
X638506Y198624D01*
X638769Y198722D01*
X639035Y198813D01*
X639302Y198898D01*
X639571Y198976D01*
X639843Y199047D01*
X640116Y199112D01*
X640390Y199170D01*
X640666Y199222D01*
X640943Y199266D01*
X641221Y199304D01*
X641500Y199335D01*
X641779Y199359D01*
X642059Y199376D01*
X642339Y199387D01*
X642620Y199390D01*
X642901Y199387D01*
X643181Y199376D01*
X643461Y199359D01*
X643740Y199335D01*
X644019Y199304D01*
X644297Y199266D01*
X644574Y199222D01*
X644850Y199170D01*
X645124Y199112D01*
X645397Y199047D01*
X645669Y198976D01*
X645938Y198898D01*
X646205Y198813D01*
X646471Y198722D01*
X646734Y198624D01*
X646994Y198520D01*
X647252Y198409D01*
X647507Y198293D01*
X647759Y198170D01*
X648008Y198040D01*
X648254Y197905D01*
X648496Y197764D01*
X648735Y197617D01*
X648970Y197464D01*
X649201Y197305D01*
X649429Y197141D01*
X649652Y196971D01*
X649871Y196796D01*
X650086Y196615D01*
X650296Y196429D01*
X650501Y196238D01*
X650702Y196042D01*
X650898Y195841D01*
X651089Y195636D01*
X651275Y195426D01*
X651456Y195211D01*
X651631Y194992D01*
X651801Y194769D01*
X651965Y194541D01*
X652124Y194310D01*
X652277Y194075D01*
X652424Y193836D01*
X652565Y193594D01*
X652700Y193348D01*
X652830Y193099D01*
X652953Y192847D01*
X653069Y192592D01*
X653180Y192334D01*
X653284Y192074D01*
X653382Y191811D01*
X653473Y191545D01*
X653558Y191278D01*
X653636Y191009D01*
X653707Y190737D01*
X653772Y190464D01*
X653830Y190190D01*
X653882Y189914D01*
X653926Y189637D01*
X653964Y189359D01*
X653995Y189080D01*
X654019Y188801D01*
X654036Y188521D01*
X654047Y188241D01*
X654050Y187960D01*
X654047Y187679D01*
X654036Y187399D01*
X654019Y187119D01*
X653995Y186840D01*
X653964Y186561D01*
X653926Y186283D01*
X653882Y186006D01*
X653830Y185730D01*
X653772Y185456D01*
X653707Y185183D01*
X653636Y184911D01*
X653558Y184642D01*
X653473Y184375D01*
X653382Y184109D01*
X653284Y183846D01*
X653180Y183586D01*
X653069Y183328D01*
X652953Y183073D01*
X652830Y182821D01*
X652700Y182572D01*
X652565Y182326D01*
X652424Y182084D01*
X652277Y181845D01*
X652124Y181610D01*
X651965Y181379D01*
X651801Y181151D01*
X651631Y180928D01*
X651456Y180709D01*
X651275Y180494D01*
X651089Y180284D01*
X650898Y180079D01*
X650702Y179878D01*
X650501Y179682D01*
X650296Y179491D01*
X650086Y179305D01*
X649871Y179124D01*
X649652Y178949D01*
X649429Y178779D01*
X649201Y178615D01*
X648970Y178456D01*
X648735Y178303D01*
X648496Y178156D01*
X648254Y178015D01*
X648008Y177880D01*
X647759Y177750D01*
X647507Y177627D01*
X647252Y177511D01*
X646994Y177400D01*
X646734Y177296D01*
X646471Y177198D01*
X646205Y177107D01*
X645938Y177022D01*
X645669Y176944D01*
X645397Y176873D01*
X645124Y176808D01*
X644850Y176750D01*
X644574Y176698D01*
X644297Y176654D01*
X644019Y176616D01*
X643740Y176585D01*
X643461Y176561D01*
X643181Y176544D01*
X642901Y176533D01*
X642620Y176530D01*
X642339Y176533D01*
X642059Y176544D01*
X641779Y176561D01*
X641500Y176585D01*
X641221Y176616D01*
X640943Y176654D01*
X640666Y176698D01*
X640390Y176750D01*
X640116Y176808D01*
X639843Y176873D01*
X639571Y176944D01*
X639302Y177022D01*
X639035Y177107D01*
X638769Y177198D01*
X638506Y177296D01*
X638246Y177400D01*
X637988Y177511D01*
X637733Y177627D01*
X637481Y177750D01*
X637232Y177880D01*
X636986Y178015D01*
X636744Y178156D01*
X636505Y178303D01*
X636270Y178456D01*
X636039Y178615D01*
X635811Y178779D01*
X635588Y178949D01*
X635369Y179124D01*
X635154Y179305D01*
X634944Y179491D01*
X634739Y179682D01*
X634538Y179878D01*
X634342Y180079D01*
X634151Y180284D01*
X633965Y180494D01*
X633784Y180709D01*
X633609Y180928D01*
X633439Y181151D01*
X633275Y181379D01*
X633116Y181610D01*
X632963Y181845D01*
X632816Y182084D01*
X632675Y182326D01*
X632540Y182572D01*
X632410Y182821D01*
X632287Y183073D01*
X632171Y183328D01*
X632060Y183586D01*
X631956Y183846D01*
X631858Y184109D01*
X631767Y184375D01*
X631682Y184642D01*
X631604Y184911D01*
X631533Y185183D01*
X631468Y185456D01*
X631410Y185730D01*
X631358Y186006D01*
X631314Y186283D01*
X631276Y186561D01*
X631245Y186840D01*
X631221Y187119D01*
X631204Y187399D01*
X631193Y187679D01*
X631190Y187960D01*
X631190Y457200D02*
X631193Y457481D01*
X631204Y457761D01*
X631221Y458041D01*
X631245Y458320D01*
X631276Y458599D01*
X631314Y458877D01*
X631358Y459154D01*
X631410Y459430D01*
X631468Y459704D01*
X631533Y459977D01*
X631604Y460249D01*
X631682Y460518D01*
X631767Y460785D01*
X631858Y461051D01*
X631956Y461314D01*
X632060Y461574D01*
X632171Y461832D01*
X632287Y462087D01*
X632410Y462339D01*
X632540Y462588D01*
X632675Y462834D01*
X632816Y463076D01*
X632963Y463315D01*
X633116Y463550D01*
X633275Y463781D01*
X633439Y464009D01*
X633609Y464232D01*
X633784Y464451D01*
X633965Y464666D01*
X634151Y464876D01*
X634342Y465081D01*
X634538Y465282D01*
X634739Y465478D01*
X634944Y465669D01*
X635154Y465855D01*
X635369Y466036D01*
X635588Y466211D01*
X635811Y466381D01*
X636039Y466545D01*
X636270Y466704D01*
X636505Y466857D01*
X636744Y467004D01*
X636986Y467145D01*
X637232Y467280D01*
X637481Y467410D01*
X637733Y467533D01*
X637988Y467649D01*
X638246Y467760D01*
X638506Y467864D01*
X638769Y467962D01*
X639035Y468053D01*
X639302Y468138D01*
X639571Y468216D01*
X639843Y468287D01*
X640116Y468352D01*
X640390Y468410D01*
X640666Y468462D01*
X640943Y468506D01*
X641221Y468544D01*
X641500Y468575D01*
X641779Y468599D01*
X642059Y468616D01*
X642339Y468627D01*
X642620Y468630D01*
X642901Y468627D01*
X643181Y468616D01*
X643461Y468599D01*
X643740Y468575D01*
X644019Y468544D01*
X644297Y468506D01*
X644574Y468462D01*
X644850Y468410D01*
X645124Y468352D01*
X645397Y468287D01*
X645669Y468216D01*
X645938Y468138D01*
X646205Y468053D01*
X646471Y467962D01*
X646734Y467864D01*
X646994Y467760D01*
X647252Y467649D01*
X647507Y467533D01*
X647759Y467410D01*
X648008Y467280D01*
X648254Y467145D01*
X648496Y467004D01*
X648735Y466857D01*
X648970Y466704D01*
X649201Y466545D01*
X649429Y466381D01*
X649652Y466211D01*
X649871Y466036D01*
X650086Y465855D01*
X650296Y465669D01*
X650501Y465478D01*
X650702Y465282D01*
X650898Y465081D01*
X651089Y464876D01*
X651275Y464666D01*
X651456Y464451D01*
X651631Y464232D01*
X651801Y464009D01*
X651965Y463781D01*
X652124Y463550D01*
X652277Y463315D01*
X652424Y463076D01*
X652565Y462834D01*
X652700Y462588D01*
X652830Y462339D01*
X652953Y462087D01*
X653069Y461832D01*
X653180Y461574D01*
X653284Y461314D01*
X653382Y461051D01*
X653473Y460785D01*
X653558Y460518D01*
X653636Y460249D01*
X653707Y459977D01*
X653772Y459704D01*
X653830Y459430D01*
X653882Y459154D01*
X653926Y458877D01*
X653964Y458599D01*
X653995Y458320D01*
X654019Y458041D01*
X654036Y457761D01*
X654047Y457481D01*
X654050Y457200D01*
X654047Y456919D01*
X654036Y456639D01*
X654019Y456359D01*
X653995Y456080D01*
X653964Y455801D01*
X653926Y455523D01*
X653882Y455246D01*
X653830Y454970D01*
X653772Y454696D01*
X653707Y454423D01*
X653636Y454151D01*
X653558Y453882D01*
X653473Y453615D01*
X653382Y453349D01*
X653284Y453086D01*
X653180Y452826D01*
X653069Y452568D01*
X652953Y452313D01*
X652830Y452061D01*
X652700Y451812D01*
X652565Y451566D01*
X652424Y451324D01*
X652277Y451085D01*
X652124Y450850D01*
X651965Y450619D01*
X651801Y450391D01*
X651631Y450168D01*
X651456Y449949D01*
X651275Y449734D01*
X651089Y449524D01*
X650898Y449319D01*
X650702Y449118D01*
X650501Y448922D01*
X650296Y448731D01*
X650086Y448545D01*
X649871Y448364D01*
X649652Y448189D01*
X649429Y448019D01*
X649201Y447855D01*
X648970Y447696D01*
X648735Y447543D01*
X648496Y447396D01*
X648254Y447255D01*
X648008Y447120D01*
X647759Y446990D01*
X647507Y446867D01*
X647252Y446751D01*
X646994Y446640D01*
X646734Y446536D01*
X646471Y446438D01*
X646205Y446347D01*
X645938Y446262D01*
X645669Y446184D01*
X645397Y446113D01*
X645124Y446048D01*
X644850Y445990D01*
X644574Y445938D01*
X644297Y445894D01*
X644019Y445856D01*
X643740Y445825D01*
X643461Y445801D01*
X643181Y445784D01*
X642901Y445773D01*
X642620Y445770D01*
X642339Y445773D01*
X642059Y445784D01*
X641779Y445801D01*
X641500Y445825D01*
X641221Y445856D01*
X640943Y445894D01*
X640666Y445938D01*
X640390Y445990D01*
X640116Y446048D01*
X639843Y446113D01*
X639571Y446184D01*
X639302Y446262D01*
X639035Y446347D01*
X638769Y446438D01*
X638506Y446536D01*
X638246Y446640D01*
X637988Y446751D01*
X637733Y446867D01*
X637481Y446990D01*
X637232Y447120D01*
X636986Y447255D01*
X636744Y447396D01*
X636505Y447543D01*
X636270Y447696D01*
X636039Y447855D01*
X635811Y448019D01*
X635588Y448189D01*
X635369Y448364D01*
X635154Y448545D01*
X634944Y448731D01*
X634739Y448922D01*
X634538Y449118D01*
X634342Y449319D01*
X634151Y449524D01*
X633965Y449734D01*
X633784Y449949D01*
X633609Y450168D01*
X633439Y450391D01*
X633275Y450619D01*
X633116Y450850D01*
X632963Y451085D01*
X632816Y451324D01*
X632675Y451566D01*
X632540Y451812D01*
X632410Y452061D01*
X632287Y452313D01*
X632171Y452568D01*
X632060Y452826D01*
X631956Y453086D01*
X631858Y453349D01*
X631767Y453615D01*
X631682Y453882D01*
X631604Y454151D01*
X631533Y454423D01*
X631468Y454696D01*
X631410Y454970D01*
X631358Y455246D01*
X631314Y455523D01*
X631276Y455801D01*
X631245Y456080D01*
X631221Y456359D01*
X631204Y456639D01*
X631193Y456919D01*
X631190Y457200D01*
X61400Y609600D02*
X61402Y609741D01*
X61408Y609882D01*
X61418Y610022D01*
X61432Y610162D01*
X61450Y610302D01*
X61471Y610441D01*
X61497Y610580D01*
X61526Y610718D01*
X61560Y610854D01*
X61597Y610990D01*
X61638Y611125D01*
X61683Y611259D01*
X61732Y611391D01*
X61784Y611522D01*
X61840Y611651D01*
X61900Y611778D01*
X61963Y611904D01*
X62029Y612028D01*
X62100Y612151D01*
X62173Y612271D01*
X62250Y612389D01*
X62330Y612505D01*
X62414Y612618D01*
X62500Y612729D01*
X62590Y612838D01*
X62683Y612944D01*
X62778Y613047D01*
X62877Y613148D01*
X62978Y613246D01*
X63082Y613341D01*
X63189Y613433D01*
X63298Y613522D01*
X63410Y613607D01*
X63524Y613690D01*
X63640Y613770D01*
X63759Y613846D01*
X63880Y613918D01*
X64002Y613988D01*
X64127Y614053D01*
X64253Y614116D01*
X64381Y614174D01*
X64511Y614229D01*
X64642Y614281D01*
X64775Y614328D01*
X64909Y614372D01*
X65044Y614413D01*
X65180Y614449D01*
X65317Y614481D01*
X65455Y614510D01*
X65593Y614535D01*
X65733Y614555D01*
X65873Y614572D01*
X66013Y614585D01*
X66154Y614594D01*
X66294Y614599D01*
X66435Y614600D01*
X66576Y614597D01*
X66717Y614590D01*
X66857Y614579D01*
X66997Y614564D01*
X67137Y614545D01*
X67276Y614523D01*
X67414Y614496D01*
X67552Y614466D01*
X67688Y614431D01*
X67824Y614393D01*
X67958Y614351D01*
X68092Y614305D01*
X68224Y614256D01*
X68354Y614202D01*
X68483Y614145D01*
X68610Y614085D01*
X68736Y614021D01*
X68859Y613953D01*
X68981Y613882D01*
X69101Y613808D01*
X69218Y613730D01*
X69333Y613649D01*
X69446Y613565D01*
X69557Y613478D01*
X69665Y613387D01*
X69770Y613294D01*
X69873Y613197D01*
X69973Y613098D01*
X70070Y612996D01*
X70164Y612891D01*
X70255Y612784D01*
X70343Y612674D01*
X70428Y612562D01*
X70510Y612447D01*
X70589Y612330D01*
X70664Y612211D01*
X70736Y612090D01*
X70804Y611967D01*
X70869Y611842D01*
X70931Y611715D01*
X70988Y611586D01*
X71043Y611456D01*
X71093Y611325D01*
X71140Y611192D01*
X71183Y611058D01*
X71222Y610922D01*
X71257Y610786D01*
X71289Y610649D01*
X71316Y610511D01*
X71340Y610372D01*
X71360Y610232D01*
X71376Y610092D01*
X71388Y609952D01*
X71396Y609811D01*
X71400Y609670D01*
X71400Y609530D01*
X71396Y609389D01*
X71388Y609248D01*
X71376Y609108D01*
X71360Y608968D01*
X71340Y608828D01*
X71316Y608689D01*
X71289Y608551D01*
X71257Y608414D01*
X71222Y608278D01*
X71183Y608142D01*
X71140Y608008D01*
X71093Y607875D01*
X71043Y607744D01*
X70988Y607614D01*
X70931Y607485D01*
X70869Y607358D01*
X70804Y607233D01*
X70736Y607110D01*
X70664Y606989D01*
X70589Y606870D01*
X70510Y606753D01*
X70428Y606638D01*
X70343Y606526D01*
X70255Y606416D01*
X70164Y606309D01*
X70070Y606204D01*
X69973Y606102D01*
X69873Y606003D01*
X69770Y605906D01*
X69665Y605813D01*
X69557Y605722D01*
X69446Y605635D01*
X69333Y605551D01*
X69218Y605470D01*
X69101Y605392D01*
X68981Y605318D01*
X68859Y605247D01*
X68736Y605179D01*
X68610Y605115D01*
X68483Y605055D01*
X68354Y604998D01*
X68224Y604944D01*
X68092Y604895D01*
X67958Y604849D01*
X67824Y604807D01*
X67688Y604769D01*
X67552Y604734D01*
X67414Y604704D01*
X67276Y604677D01*
X67137Y604655D01*
X66997Y604636D01*
X66857Y604621D01*
X66717Y604610D01*
X66576Y604603D01*
X66435Y604600D01*
X66294Y604601D01*
X66154Y604606D01*
X66013Y604615D01*
X65873Y604628D01*
X65733Y604645D01*
X65593Y604665D01*
X65455Y604690D01*
X65317Y604719D01*
X65180Y604751D01*
X65044Y604787D01*
X64909Y604828D01*
X64775Y604872D01*
X64642Y604919D01*
X64511Y604971D01*
X64381Y605026D01*
X64253Y605084D01*
X64127Y605147D01*
X64002Y605212D01*
X63880Y605282D01*
X63759Y605354D01*
X63640Y605430D01*
X63524Y605510D01*
X63410Y605593D01*
X63298Y605678D01*
X63189Y605767D01*
X63082Y605859D01*
X62978Y605954D01*
X62877Y606052D01*
X62778Y606153D01*
X62683Y606256D01*
X62590Y606362D01*
X62500Y606471D01*
X62414Y606582D01*
X62330Y606695D01*
X62250Y606811D01*
X62173Y606929D01*
X62100Y607049D01*
X62029Y607172D01*
X61963Y607296D01*
X61900Y607422D01*
X61840Y607549D01*
X61784Y607678D01*
X61732Y607809D01*
X61683Y607941D01*
X61638Y608075D01*
X61597Y608210D01*
X61560Y608346D01*
X61526Y608482D01*
X61497Y608620D01*
X61471Y608759D01*
X61450Y608898D01*
X61432Y609038D01*
X61418Y609178D01*
X61408Y609318D01*
X61402Y609459D01*
X61400Y609600D01*
X121400Y609600D02*
X121402Y609741D01*
X121408Y609882D01*
X121418Y610022D01*
X121432Y610162D01*
X121450Y610302D01*
X121471Y610441D01*
X121497Y610580D01*
X121526Y610718D01*
X121560Y610854D01*
X121597Y610990D01*
X121638Y611125D01*
X121683Y611259D01*
X121732Y611391D01*
X121784Y611522D01*
X121840Y611651D01*
X121900Y611778D01*
X121963Y611904D01*
X122029Y612028D01*
X122100Y612151D01*
X122173Y612271D01*
X122250Y612389D01*
X122330Y612505D01*
X122414Y612618D01*
X122500Y612729D01*
X122590Y612838D01*
X122683Y612944D01*
X122778Y613047D01*
X122877Y613148D01*
X122978Y613246D01*
X123082Y613341D01*
X123189Y613433D01*
X123298Y613522D01*
X123410Y613607D01*
X123524Y613690D01*
X123640Y613770D01*
X123759Y613846D01*
X123880Y613918D01*
X124002Y613988D01*
X124127Y614053D01*
X124253Y614116D01*
X124381Y614174D01*
X124511Y614229D01*
X124642Y614281D01*
X124775Y614328D01*
X124909Y614372D01*
X125044Y614413D01*
X125180Y614449D01*
X125317Y614481D01*
X125455Y614510D01*
X125593Y614535D01*
X125733Y614555D01*
X125873Y614572D01*
X126013Y614585D01*
X126154Y614594D01*
X126294Y614599D01*
X126435Y614600D01*
X126576Y614597D01*
X126717Y614590D01*
X126857Y614579D01*
X126997Y614564D01*
X127137Y614545D01*
X127276Y614523D01*
X127414Y614496D01*
X127552Y614466D01*
X127688Y614431D01*
X127824Y614393D01*
X127958Y614351D01*
X128092Y614305D01*
X128224Y614256D01*
X128354Y614202D01*
X128483Y614145D01*
X128610Y614085D01*
X128736Y614021D01*
X128859Y613953D01*
X128981Y613882D01*
X129101Y613808D01*
X129218Y613730D01*
X129333Y613649D01*
X129446Y613565D01*
X129557Y613478D01*
X129665Y613387D01*
X129770Y613294D01*
X129873Y613197D01*
X129973Y613098D01*
X130070Y612996D01*
X130164Y612891D01*
X130255Y612784D01*
X130343Y612674D01*
X130428Y612562D01*
X130510Y612447D01*
X130589Y612330D01*
X130664Y612211D01*
X130736Y612090D01*
X130804Y611967D01*
X130869Y611842D01*
X130931Y611715D01*
X130988Y611586D01*
X131043Y611456D01*
X131093Y611325D01*
X131140Y611192D01*
X131183Y611058D01*
X131222Y610922D01*
X131257Y610786D01*
X131289Y610649D01*
X131316Y610511D01*
X131340Y610372D01*
X131360Y610232D01*
X131376Y610092D01*
X131388Y609952D01*
X131396Y609811D01*
X131400Y609670D01*
X131400Y609530D01*
X131396Y609389D01*
X131388Y609248D01*
X131376Y609108D01*
X131360Y608968D01*
X131340Y608828D01*
X131316Y608689D01*
X131289Y608551D01*
X131257Y608414D01*
X131222Y608278D01*
X131183Y608142D01*
X131140Y608008D01*
X131093Y607875D01*
X131043Y607744D01*
X130988Y607614D01*
X130931Y607485D01*
X130869Y607358D01*
X130804Y607233D01*
X130736Y607110D01*
X130664Y606989D01*
X130589Y606870D01*
X130510Y606753D01*
X130428Y606638D01*
X130343Y606526D01*
X130255Y606416D01*
X130164Y606309D01*
X130070Y606204D01*
X129973Y606102D01*
X129873Y606003D01*
X129770Y605906D01*
X129665Y605813D01*
X129557Y605722D01*
X129446Y605635D01*
X129333Y605551D01*
X129218Y605470D01*
X129101Y605392D01*
X128981Y605318D01*
X128859Y605247D01*
X128736Y605179D01*
X128610Y605115D01*
X128483Y605055D01*
X128354Y604998D01*
X128224Y604944D01*
X128092Y604895D01*
X127958Y604849D01*
X127824Y604807D01*
X127688Y604769D01*
X127552Y604734D01*
X127414Y604704D01*
X127276Y604677D01*
X127137Y604655D01*
X126997Y604636D01*
X126857Y604621D01*
X126717Y604610D01*
X126576Y604603D01*
X126435Y604600D01*
X126294Y604601D01*
X126154Y604606D01*
X126013Y604615D01*
X125873Y604628D01*
X125733Y604645D01*
X125593Y604665D01*
X125455Y604690D01*
X125317Y604719D01*
X125180Y604751D01*
X125044Y604787D01*
X124909Y604828D01*
X124775Y604872D01*
X124642Y604919D01*
X124511Y604971D01*
X124381Y605026D01*
X124253Y605084D01*
X124127Y605147D01*
X124002Y605212D01*
X123880Y605282D01*
X123759Y605354D01*
X123640Y605430D01*
X123524Y605510D01*
X123410Y605593D01*
X123298Y605678D01*
X123189Y605767D01*
X123082Y605859D01*
X122978Y605954D01*
X122877Y606052D01*
X122778Y606153D01*
X122683Y606256D01*
X122590Y606362D01*
X122500Y606471D01*
X122414Y606582D01*
X122330Y606695D01*
X122250Y606811D01*
X122173Y606929D01*
X122100Y607049D01*
X122029Y607172D01*
X121963Y607296D01*
X121900Y607422D01*
X121840Y607549D01*
X121784Y607678D01*
X121732Y607809D01*
X121683Y607941D01*
X121638Y608075D01*
X121597Y608210D01*
X121560Y608346D01*
X121526Y608482D01*
X121497Y608620D01*
X121471Y608759D01*
X121450Y608898D01*
X121432Y609038D01*
X121418Y609178D01*
X121408Y609318D01*
X121402Y609459D01*
X121400Y609600D01*
M02*
