G04 EAGLE Gerber RS-274X export*
G75*
%MOMM*%
%FSLAX34Y34*%
%LPD*%
%INBottom Copper Layer*%
%IPPOS*%
%AMOC8*
5,1,8,0,0,1.08239X$1,22.5*%
G01*
%ADD10R,1.600200X1.600200*%
%ADD11C,1.600200*%
%ADD12C,3.048000*%
%ADD13R,1.447800X1.447800*%
%ADD14C,1.447800*%
%ADD15P,1.319650X8X112.500000*%
%ADD16C,1.800000*%
%ADD17C,2.400000*%
%ADD18C,0.152400*%

G36*
X698520Y11942D02*
X698520Y11942D01*
X698539Y11940D01*
X698641Y11962D01*
X698743Y11979D01*
X698760Y11988D01*
X698780Y11992D01*
X698869Y12045D01*
X698960Y12094D01*
X698974Y12108D01*
X698991Y12118D01*
X699058Y12197D01*
X699130Y12272D01*
X699138Y12290D01*
X699151Y12305D01*
X699190Y12401D01*
X699233Y12495D01*
X699235Y12515D01*
X699243Y12533D01*
X699261Y12700D01*
X699261Y660400D01*
X699258Y660420D01*
X699260Y660439D01*
X699238Y660541D01*
X699222Y660643D01*
X699212Y660660D01*
X699208Y660680D01*
X699155Y660769D01*
X699106Y660860D01*
X699092Y660874D01*
X699082Y660891D01*
X699003Y660958D01*
X698928Y661030D01*
X698910Y661038D01*
X698895Y661051D01*
X698799Y661090D01*
X698705Y661133D01*
X698685Y661135D01*
X698667Y661143D01*
X698500Y661161D01*
X12700Y661161D01*
X12680Y661158D01*
X12661Y661160D01*
X12559Y661138D01*
X12457Y661122D01*
X12440Y661112D01*
X12420Y661108D01*
X12331Y661055D01*
X12240Y661006D01*
X12226Y660992D01*
X12209Y660982D01*
X12142Y660903D01*
X12071Y660828D01*
X12062Y660810D01*
X12049Y660795D01*
X12010Y660699D01*
X11967Y660605D01*
X11965Y660585D01*
X11957Y660567D01*
X11939Y660400D01*
X11939Y12700D01*
X11942Y12680D01*
X11940Y12661D01*
X11962Y12559D01*
X11979Y12457D01*
X11988Y12440D01*
X11992Y12420D01*
X12045Y12331D01*
X12094Y12240D01*
X12108Y12226D01*
X12118Y12209D01*
X12197Y12142D01*
X12272Y12071D01*
X12290Y12062D01*
X12305Y12049D01*
X12401Y12010D01*
X12495Y11967D01*
X12515Y11965D01*
X12533Y11957D01*
X12700Y11939D01*
X698500Y11939D01*
X698520Y11942D01*
G37*
%LPC*%
G36*
X126053Y391413D02*
X126053Y391413D01*
X100876Y416590D01*
X100802Y416643D01*
X100732Y416703D01*
X100702Y416715D01*
X100676Y416734D01*
X100589Y416761D01*
X100504Y416795D01*
X100463Y416799D01*
X100441Y416806D01*
X100409Y416805D01*
X100337Y416813D01*
X33401Y416813D01*
X33381Y416810D01*
X33362Y416812D01*
X33260Y416790D01*
X33158Y416774D01*
X33141Y416764D01*
X33121Y416760D01*
X33032Y416707D01*
X32941Y416658D01*
X32927Y416644D01*
X32910Y416634D01*
X32843Y416555D01*
X32771Y416480D01*
X32763Y416462D01*
X32750Y416447D01*
X32711Y416351D01*
X32668Y416257D01*
X32666Y416237D01*
X32658Y416219D01*
X32640Y416052D01*
X32640Y411229D01*
X31747Y410336D01*
X16005Y410336D01*
X15112Y411229D01*
X15112Y426971D01*
X16005Y427864D01*
X31747Y427864D01*
X32640Y426971D01*
X32640Y422148D01*
X32643Y422128D01*
X32641Y422109D01*
X32663Y422007D01*
X32679Y421905D01*
X32689Y421888D01*
X32693Y421868D01*
X32746Y421779D01*
X32795Y421688D01*
X32809Y421674D01*
X32819Y421657D01*
X32898Y421590D01*
X32973Y421518D01*
X32991Y421510D01*
X33006Y421497D01*
X33102Y421458D01*
X33196Y421415D01*
X33216Y421413D01*
X33234Y421405D01*
X33401Y421387D01*
X102547Y421387D01*
X127724Y396210D01*
X127798Y396157D01*
X127868Y396097D01*
X127898Y396085D01*
X127924Y396066D01*
X128011Y396039D01*
X128096Y396005D01*
X128137Y396001D01*
X128159Y395994D01*
X128191Y395995D01*
X128263Y395987D01*
X176537Y395987D01*
X176628Y396001D01*
X176718Y396009D01*
X176748Y396021D01*
X176780Y396026D01*
X176861Y396069D01*
X176945Y396105D01*
X176977Y396131D01*
X176998Y396142D01*
X177020Y396165D01*
X177076Y396210D01*
X226090Y445224D01*
X226143Y445298D01*
X226203Y445368D01*
X226215Y445398D01*
X226234Y445424D01*
X226261Y445511D01*
X226295Y445596D01*
X226299Y445637D01*
X226306Y445659D01*
X226305Y445691D01*
X226313Y445763D01*
X226313Y448818D01*
X226310Y448838D01*
X226312Y448857D01*
X226290Y448959D01*
X226274Y449061D01*
X226264Y449078D01*
X226260Y449098D01*
X226207Y449187D01*
X226158Y449278D01*
X226144Y449292D01*
X226134Y449309D01*
X226055Y449376D01*
X225980Y449448D01*
X225962Y449456D01*
X225947Y449469D01*
X225851Y449508D01*
X225757Y449551D01*
X225737Y449553D01*
X225719Y449561D01*
X225552Y449579D01*
X225443Y449579D01*
X220979Y454043D01*
X220979Y460357D01*
X225443Y464821D01*
X231757Y464821D01*
X236221Y460357D01*
X236221Y454043D01*
X231757Y449579D01*
X231648Y449579D01*
X231628Y449576D01*
X231609Y449578D01*
X231507Y449556D01*
X231405Y449540D01*
X231388Y449530D01*
X231368Y449526D01*
X231279Y449473D01*
X231188Y449424D01*
X231174Y449410D01*
X231157Y449400D01*
X231090Y449321D01*
X231018Y449246D01*
X231010Y449228D01*
X230997Y449213D01*
X230958Y449117D01*
X230915Y449023D01*
X230913Y449003D01*
X230905Y448985D01*
X230887Y448818D01*
X230887Y443553D01*
X228054Y440720D01*
X228012Y440662D01*
X227963Y440610D01*
X227941Y440563D01*
X227911Y440521D01*
X227890Y440452D01*
X227859Y440387D01*
X227854Y440335D01*
X227838Y440285D01*
X227840Y440214D01*
X227832Y440143D01*
X227843Y440092D01*
X227845Y440040D01*
X227869Y439972D01*
X227884Y439902D01*
X227911Y439857D01*
X227929Y439809D01*
X227974Y439753D01*
X228011Y439691D01*
X228050Y439657D01*
X228083Y439617D01*
X228143Y439578D01*
X228198Y439531D01*
X228246Y439512D01*
X228290Y439484D01*
X228359Y439466D01*
X228426Y439439D01*
X228497Y439431D01*
X228528Y439423D01*
X228552Y439425D01*
X228592Y439421D01*
X231757Y439421D01*
X236221Y434957D01*
X236221Y428643D01*
X231757Y424179D01*
X225443Y424179D01*
X220979Y428643D01*
X220979Y431808D01*
X220968Y431878D01*
X220966Y431950D01*
X220948Y431999D01*
X220940Y432050D01*
X220906Y432114D01*
X220881Y432181D01*
X220849Y432222D01*
X220824Y432268D01*
X220772Y432317D01*
X220728Y432373D01*
X220684Y432401D01*
X220646Y432437D01*
X220581Y432467D01*
X220521Y432506D01*
X220470Y432519D01*
X220423Y432541D01*
X220352Y432549D01*
X220282Y432566D01*
X220230Y432562D01*
X220179Y432568D01*
X220108Y432553D01*
X220037Y432547D01*
X219989Y432527D01*
X219938Y432516D01*
X219877Y432479D01*
X219811Y432451D01*
X219755Y432406D01*
X219727Y432389D01*
X219712Y432372D01*
X219680Y432346D01*
X178747Y391413D01*
X126053Y391413D01*
G37*
%LPD*%
%LPC*%
G36*
X208029Y485012D02*
X208029Y485012D01*
X207136Y485905D01*
X207136Y501647D01*
X208029Y502540D01*
X212852Y502540D01*
X212872Y502543D01*
X212891Y502541D01*
X212993Y502563D01*
X213095Y502579D01*
X213112Y502589D01*
X213132Y502593D01*
X213221Y502646D01*
X213312Y502695D01*
X213326Y502709D01*
X213343Y502719D01*
X213410Y502798D01*
X213482Y502873D01*
X213490Y502891D01*
X213503Y502906D01*
X213542Y503002D01*
X213585Y503096D01*
X213587Y503116D01*
X213595Y503134D01*
X213613Y503301D01*
X213613Y585147D01*
X226090Y597624D01*
X226143Y597698D01*
X226203Y597768D01*
X226215Y597798D01*
X226234Y597824D01*
X226261Y597911D01*
X226295Y597996D01*
X226299Y598037D01*
X226306Y598059D01*
X226305Y598091D01*
X226313Y598163D01*
X226313Y610547D01*
X227876Y612110D01*
X240314Y624548D01*
X241877Y626111D01*
X257175Y626111D01*
X257195Y626114D01*
X257214Y626112D01*
X257316Y626134D01*
X257418Y626150D01*
X257435Y626160D01*
X257455Y626164D01*
X257544Y626217D01*
X257635Y626266D01*
X257649Y626280D01*
X257666Y626290D01*
X257733Y626369D01*
X257805Y626444D01*
X257813Y626462D01*
X257826Y626477D01*
X257865Y626573D01*
X257908Y626667D01*
X257910Y626687D01*
X257918Y626705D01*
X257936Y626872D01*
X257936Y631695D01*
X258829Y632588D01*
X274571Y632588D01*
X275464Y631695D01*
X275464Y615953D01*
X274571Y615060D01*
X258829Y615060D01*
X257936Y615953D01*
X257936Y620776D01*
X257933Y620796D01*
X257935Y620815D01*
X257913Y620917D01*
X257897Y621019D01*
X257887Y621036D01*
X257883Y621056D01*
X257830Y621145D01*
X257781Y621236D01*
X257767Y621250D01*
X257757Y621267D01*
X257678Y621334D01*
X257603Y621406D01*
X257585Y621414D01*
X257570Y621427D01*
X257474Y621466D01*
X257380Y621509D01*
X257360Y621511D01*
X257342Y621519D01*
X257175Y621537D01*
X244086Y621537D01*
X243996Y621523D01*
X243905Y621515D01*
X243876Y621503D01*
X243844Y621498D01*
X243763Y621455D01*
X243679Y621419D01*
X243647Y621393D01*
X243626Y621382D01*
X243604Y621359D01*
X243548Y621314D01*
X231110Y608876D01*
X231057Y608802D01*
X230997Y608732D01*
X230985Y608702D01*
X230966Y608676D01*
X230939Y608589D01*
X230905Y608504D01*
X230901Y608463D01*
X230894Y608441D01*
X230895Y608409D01*
X230887Y608338D01*
X230887Y595953D01*
X218410Y583476D01*
X218357Y583402D01*
X218297Y583332D01*
X218285Y583302D01*
X218266Y583276D01*
X218239Y583189D01*
X218205Y583104D01*
X218201Y583063D01*
X218194Y583041D01*
X218195Y583009D01*
X218187Y582937D01*
X218187Y503301D01*
X218190Y503281D01*
X218188Y503262D01*
X218210Y503160D01*
X218226Y503058D01*
X218236Y503041D01*
X218240Y503021D01*
X218293Y502932D01*
X218342Y502841D01*
X218356Y502827D01*
X218366Y502810D01*
X218445Y502743D01*
X218520Y502671D01*
X218538Y502663D01*
X218553Y502650D01*
X218649Y502611D01*
X218743Y502568D01*
X218763Y502566D01*
X218781Y502558D01*
X218948Y502540D01*
X223771Y502540D01*
X224664Y501647D01*
X224664Y485905D01*
X223771Y485012D01*
X208029Y485012D01*
G37*
%LPD*%
%LPC*%
G36*
X200043Y449579D02*
X200043Y449579D01*
X195579Y454043D01*
X195579Y460357D01*
X195656Y460433D01*
X195668Y460450D01*
X195683Y460462D01*
X195739Y460549D01*
X195800Y460633D01*
X195806Y460652D01*
X195816Y460669D01*
X195842Y460769D01*
X195872Y460868D01*
X195871Y460888D01*
X195876Y460907D01*
X195868Y461010D01*
X195866Y461114D01*
X195859Y461133D01*
X195857Y461153D01*
X195817Y461248D01*
X195781Y461345D01*
X195769Y461361D01*
X195761Y461379D01*
X195656Y461510D01*
X189776Y467390D01*
X188213Y468953D01*
X188213Y610547D01*
X202253Y624587D01*
X206853Y624587D01*
X206968Y624606D01*
X207084Y624623D01*
X207089Y624625D01*
X207096Y624626D01*
X207198Y624681D01*
X207303Y624734D01*
X207307Y624739D01*
X207313Y624742D01*
X207393Y624826D01*
X207475Y624910D01*
X207479Y624916D01*
X207482Y624920D01*
X207490Y624937D01*
X207556Y625057D01*
X208470Y627264D01*
X210936Y629730D01*
X214157Y631064D01*
X217643Y631064D01*
X220864Y629730D01*
X223330Y627264D01*
X224664Y624043D01*
X224664Y620557D01*
X223330Y617336D01*
X220864Y614870D01*
X217643Y613536D01*
X214157Y613536D01*
X210936Y614870D01*
X208470Y617336D01*
X207556Y619543D01*
X207494Y619643D01*
X207435Y619743D01*
X207430Y619747D01*
X207426Y619752D01*
X207336Y619827D01*
X207248Y619903D01*
X207242Y619905D01*
X207237Y619909D01*
X207129Y619951D01*
X207019Y619995D01*
X207012Y619996D01*
X207007Y619997D01*
X206989Y619998D01*
X206853Y620013D01*
X204463Y620013D01*
X204372Y619999D01*
X204282Y619991D01*
X204252Y619979D01*
X204220Y619974D01*
X204139Y619931D01*
X204055Y619895D01*
X204023Y619869D01*
X204002Y619858D01*
X203980Y619835D01*
X203924Y619790D01*
X193010Y608876D01*
X192957Y608802D01*
X192897Y608732D01*
X192885Y608702D01*
X192866Y608676D01*
X192839Y608589D01*
X192805Y608504D01*
X192801Y608463D01*
X192794Y608441D01*
X192795Y608409D01*
X192787Y608337D01*
X192787Y471163D01*
X192801Y471072D01*
X192809Y470982D01*
X192821Y470952D01*
X192826Y470920D01*
X192869Y470839D01*
X192905Y470755D01*
X192931Y470723D01*
X192942Y470702D01*
X192965Y470680D01*
X193010Y470624D01*
X198890Y464744D01*
X198906Y464732D01*
X198919Y464717D01*
X199006Y464661D01*
X199090Y464600D01*
X199109Y464594D01*
X199126Y464584D01*
X199226Y464558D01*
X199325Y464528D01*
X199345Y464529D01*
X199364Y464524D01*
X199467Y464532D01*
X199571Y464534D01*
X199589Y464541D01*
X199609Y464543D01*
X199704Y464583D01*
X199802Y464619D01*
X199817Y464631D01*
X199836Y464639D01*
X199967Y464744D01*
X200043Y464821D01*
X206357Y464821D01*
X210821Y460357D01*
X210821Y454043D01*
X206357Y449579D01*
X200043Y449579D01*
G37*
%LPD*%
%LPC*%
G36*
X591025Y564895D02*
X591025Y564895D01*
X584864Y567448D01*
X580148Y572164D01*
X577595Y578325D01*
X577595Y584995D01*
X580148Y591156D01*
X584864Y595872D01*
X591025Y598425D01*
X597695Y598425D01*
X603856Y595872D01*
X608572Y591156D01*
X611125Y584995D01*
X611125Y578325D01*
X608572Y572164D01*
X603856Y567448D01*
X597695Y564895D01*
X591025Y564895D01*
G37*
%LPD*%
%LPC*%
G36*
X461485Y564895D02*
X461485Y564895D01*
X455324Y567448D01*
X450608Y572164D01*
X448055Y578325D01*
X448055Y584995D01*
X450608Y591156D01*
X455324Y595872D01*
X461485Y598425D01*
X468155Y598425D01*
X474316Y595872D01*
X479032Y591156D01*
X481585Y584995D01*
X481585Y578325D01*
X479032Y572164D01*
X474316Y567448D01*
X468155Y564895D01*
X461485Y564895D01*
G37*
%LPD*%
%LPC*%
G36*
X639588Y441959D02*
X639588Y441959D01*
X633987Y444280D01*
X629700Y448567D01*
X627379Y454168D01*
X627379Y460232D01*
X629700Y465833D01*
X633987Y470120D01*
X639588Y472441D01*
X645652Y472441D01*
X651253Y470120D01*
X655540Y465833D01*
X657861Y460232D01*
X657861Y454168D01*
X655540Y448567D01*
X651253Y444280D01*
X645652Y441959D01*
X639588Y441959D01*
G37*
%LPD*%
%LPC*%
G36*
X416068Y307339D02*
X416068Y307339D01*
X410467Y309660D01*
X406180Y313947D01*
X403859Y319548D01*
X403859Y325612D01*
X406180Y331213D01*
X410467Y335500D01*
X416068Y337821D01*
X422132Y337821D01*
X427733Y335500D01*
X432020Y331213D01*
X434341Y325612D01*
X434341Y319548D01*
X432020Y313947D01*
X427733Y309660D01*
X422132Y307339D01*
X416068Y307339D01*
G37*
%LPD*%
%LPC*%
G36*
X639588Y172719D02*
X639588Y172719D01*
X633987Y175040D01*
X629700Y179327D01*
X627379Y184928D01*
X627379Y190992D01*
X629700Y196593D01*
X633987Y200880D01*
X639588Y203201D01*
X645652Y203201D01*
X651253Y200880D01*
X655540Y196593D01*
X657861Y190992D01*
X657861Y184928D01*
X655540Y179327D01*
X651253Y175040D01*
X645652Y172719D01*
X639588Y172719D01*
G37*
%LPD*%
%LPC*%
G36*
X175110Y164275D02*
X175110Y164275D01*
X170139Y166334D01*
X166334Y170139D01*
X164275Y175110D01*
X164275Y180490D01*
X166334Y185461D01*
X170139Y189266D01*
X175110Y191325D01*
X180490Y191325D01*
X185461Y189266D01*
X189266Y185461D01*
X191325Y180490D01*
X191325Y175110D01*
X189266Y170139D01*
X185461Y166334D01*
X180490Y164275D01*
X175110Y164275D01*
G37*
%LPD*%
%LPC*%
G36*
X175110Y88075D02*
X175110Y88075D01*
X170139Y90134D01*
X166334Y93939D01*
X164275Y98910D01*
X164275Y104290D01*
X166334Y109261D01*
X170139Y113066D01*
X175110Y115125D01*
X180490Y115125D01*
X185461Y113066D01*
X189266Y109261D01*
X191325Y104290D01*
X191325Y98910D01*
X189266Y93939D01*
X185461Y90134D01*
X180490Y88075D01*
X175110Y88075D01*
G37*
%LPD*%
%LPC*%
G36*
X232667Y346074D02*
X232667Y346074D01*
X231774Y346967D01*
X231774Y364233D01*
X232667Y365126D01*
X249933Y365126D01*
X250826Y364233D01*
X250826Y346967D01*
X249933Y346074D01*
X232667Y346074D01*
G37*
%LPD*%
%LPC*%
G36*
X105667Y320674D02*
X105667Y320674D01*
X104774Y321567D01*
X104774Y338833D01*
X105667Y339726D01*
X122933Y339726D01*
X123826Y338833D01*
X123826Y321567D01*
X122933Y320674D01*
X105667Y320674D01*
G37*
%LPD*%
%LPC*%
G36*
X131207Y129175D02*
X131207Y129175D01*
X127338Y130778D01*
X124378Y133738D01*
X122775Y137607D01*
X122775Y141793D01*
X124378Y145662D01*
X127338Y148622D01*
X131207Y150225D01*
X135393Y150225D01*
X139262Y148622D01*
X142222Y145662D01*
X143825Y141793D01*
X143825Y137607D01*
X142222Y133738D01*
X139262Y130778D01*
X135393Y129175D01*
X131207Y129175D01*
G37*
%LPD*%
%LPC*%
G36*
X146053Y473836D02*
X146053Y473836D01*
X145160Y474729D01*
X145160Y490471D01*
X146053Y491364D01*
X161795Y491364D01*
X162688Y490471D01*
X162688Y474729D01*
X161795Y473836D01*
X146053Y473836D01*
G37*
%LPD*%
%LPC*%
G36*
X62367Y320674D02*
X62367Y320674D01*
X58866Y322124D01*
X56186Y324804D01*
X54736Y328305D01*
X54736Y332095D01*
X56186Y335596D01*
X58866Y338276D01*
X62367Y339726D01*
X66157Y339726D01*
X69658Y338276D01*
X72338Y335596D01*
X73788Y332095D01*
X73788Y328305D01*
X72338Y324804D01*
X69658Y322124D01*
X66157Y320674D01*
X62367Y320674D01*
G37*
%LPD*%
%LPC*%
G36*
X239405Y296036D02*
X239405Y296036D01*
X235904Y297486D01*
X233224Y300166D01*
X231774Y303667D01*
X231774Y307457D01*
X233224Y310958D01*
X235904Y313638D01*
X239405Y315088D01*
X243195Y315088D01*
X246696Y313638D01*
X249376Y310958D01*
X250826Y307457D01*
X250826Y303667D01*
X249376Y300166D01*
X246696Y297486D01*
X243195Y296036D01*
X239405Y296036D01*
G37*
%LPD*%
%LPC*%
G36*
X124647Y600789D02*
X124647Y600789D01*
X121409Y602131D01*
X118931Y604609D01*
X117589Y607847D01*
X117589Y611353D01*
X118931Y614591D01*
X121409Y617069D01*
X124647Y618411D01*
X128153Y618411D01*
X131391Y617069D01*
X133869Y614591D01*
X135211Y611353D01*
X135211Y607847D01*
X133869Y604609D01*
X131391Y602131D01*
X128153Y600789D01*
X124647Y600789D01*
G37*
%LPD*%
%LPC*%
G36*
X64647Y600789D02*
X64647Y600789D01*
X61409Y602131D01*
X58931Y604609D01*
X57589Y607847D01*
X57589Y611353D01*
X58931Y614591D01*
X61409Y617069D01*
X64647Y618411D01*
X68153Y618411D01*
X71391Y617069D01*
X73869Y614591D01*
X75211Y611353D01*
X75211Y607847D01*
X73869Y604609D01*
X71391Y602131D01*
X68153Y600789D01*
X64647Y600789D01*
G37*
%LPD*%
%LPC*%
G36*
X264957Y486536D02*
X264957Y486536D01*
X261736Y487870D01*
X259270Y490336D01*
X257936Y493557D01*
X257936Y497043D01*
X259270Y500264D01*
X261736Y502730D01*
X264957Y504064D01*
X268443Y504064D01*
X271664Y502730D01*
X274130Y500264D01*
X275464Y497043D01*
X275464Y493557D01*
X274130Y490336D01*
X271664Y487870D01*
X268443Y486536D01*
X264957Y486536D01*
G37*
%LPD*%
%LPC*%
G36*
X23657Y473836D02*
X23657Y473836D01*
X20436Y475170D01*
X17970Y477636D01*
X16636Y480857D01*
X16636Y484343D01*
X17970Y487564D01*
X20436Y490030D01*
X23657Y491364D01*
X27143Y491364D01*
X30364Y490030D01*
X32830Y487564D01*
X34164Y484343D01*
X34164Y480857D01*
X32830Y477636D01*
X30364Y475170D01*
X27143Y473836D01*
X23657Y473836D01*
G37*
%LPD*%
%LPC*%
G36*
X150657Y410336D02*
X150657Y410336D01*
X147436Y411670D01*
X144970Y414136D01*
X143636Y417357D01*
X143636Y420843D01*
X144970Y424064D01*
X147436Y426530D01*
X150657Y427864D01*
X154143Y427864D01*
X157364Y426530D01*
X159830Y424064D01*
X161164Y420843D01*
X161164Y417357D01*
X159830Y414136D01*
X157364Y411670D01*
X154143Y410336D01*
X150657Y410336D01*
G37*
%LPD*%
D10*
X114300Y330200D03*
D11*
X64262Y330200D03*
D10*
X241300Y355600D03*
D11*
X241300Y305562D03*
D12*
X594360Y581660D03*
X464820Y581660D03*
D13*
X266700Y623824D03*
D14*
X266700Y495300D03*
D13*
X215900Y493776D03*
D14*
X215900Y622300D03*
D13*
X23876Y419100D03*
D14*
X152400Y419100D03*
D13*
X153924Y482600D03*
D14*
X25400Y482600D03*
D15*
X228600Y431800D03*
X228600Y457200D03*
X203200Y457200D03*
D16*
X133300Y139700D03*
D17*
X177800Y177800D03*
X177800Y101600D03*
D18*
X101600Y419100D02*
X23876Y419100D01*
X101600Y419100D02*
X127000Y393700D01*
X177800Y393700D01*
X228600Y444500D02*
X228600Y457200D01*
X228600Y444500D02*
X177800Y393700D01*
X215900Y493776D02*
X215900Y584200D01*
X228600Y596900D01*
X228600Y609600D01*
X242824Y623824D01*
X266700Y623824D01*
X190500Y469900D02*
X203200Y457200D01*
X190500Y469900D02*
X190500Y609600D01*
X203200Y622300D01*
X215900Y622300D01*
M02*
