M48
;GenerationSoftware,Autodesk,EAGLE,9.6.1*%
;CreationDate,2020-05-01T08:03:46Z*%
FMAT,2
ICI,OFF
METRIC,TZ,000.000
T8C0.813
T7C0.940
T6C1.000
T5C1.067
T4C1.200
T3C1.600
T2C2.032
T1C2.286
%
G90
M71
T1
X41910Y32258
X64262Y18796
X64262Y45720
T2
X59436Y58166
X46482Y58166
T3
X17780Y17780
X17780Y10160
T4
X13330Y13970
T5
X11430Y33020
X6426Y33020
X24130Y35560
X24130Y30556
T6
X6640Y60960
X12640Y60960
T7
X26670Y62382
X26670Y49530
X21590Y49378
X21590Y62230
X2388Y41910
X15240Y41910
X15392Y48260
X2540Y48260
T8
X22860Y43180
X22860Y45720
X20320Y45720
M30