G04 EAGLE Gerber RS-274X export*
G75*
%MOMM*%
%FSLAX34Y34*%
%LPD*%
%INTop Copper Layer*%
%IPPOS*%
%AMOC8*
5,1,8,0,0,1.08239X$1,22.5*%
G01*
%ADD10R,1.600200X1.600200*%
%ADD11C,1.600200*%
%ADD12C,3.048000*%
%ADD13R,1.447800X1.447800*%
%ADD14C,1.447800*%
%ADD15P,1.319650X8X112.500000*%
%ADD16C,1.800000*%
%ADD17C,2.400000*%
%ADD18R,2.400000X2.800000*%
%ADD19R,2.400000X2.500000*%
%ADD20C,0.152400*%

G36*
X698520Y11942D02*
X698520Y11942D01*
X698539Y11940D01*
X698641Y11962D01*
X698743Y11979D01*
X698760Y11988D01*
X698780Y11992D01*
X698869Y12045D01*
X698960Y12094D01*
X698974Y12108D01*
X698991Y12118D01*
X699058Y12197D01*
X699130Y12272D01*
X699138Y12290D01*
X699151Y12305D01*
X699190Y12401D01*
X699233Y12495D01*
X699235Y12515D01*
X699243Y12533D01*
X699261Y12700D01*
X699261Y660400D01*
X699258Y660420D01*
X699260Y660439D01*
X699238Y660541D01*
X699222Y660643D01*
X699212Y660660D01*
X699208Y660680D01*
X699155Y660769D01*
X699106Y660860D01*
X699092Y660874D01*
X699082Y660891D01*
X699003Y660958D01*
X698928Y661030D01*
X698910Y661038D01*
X698895Y661051D01*
X698799Y661090D01*
X698705Y661133D01*
X698685Y661135D01*
X698667Y661143D01*
X698500Y661161D01*
X12700Y661161D01*
X12680Y661158D01*
X12661Y661160D01*
X12559Y661138D01*
X12457Y661122D01*
X12440Y661112D01*
X12420Y661108D01*
X12331Y661055D01*
X12240Y661006D01*
X12226Y660992D01*
X12209Y660982D01*
X12142Y660903D01*
X12071Y660828D01*
X12062Y660810D01*
X12049Y660795D01*
X12010Y660699D01*
X11967Y660605D01*
X11965Y660585D01*
X11957Y660567D01*
X11939Y660400D01*
X11939Y12700D01*
X11942Y12680D01*
X11940Y12661D01*
X11962Y12559D01*
X11979Y12457D01*
X11988Y12440D01*
X11992Y12420D01*
X12045Y12331D01*
X12094Y12240D01*
X12108Y12226D01*
X12118Y12209D01*
X12197Y12142D01*
X12272Y12071D01*
X12290Y12062D01*
X12305Y12049D01*
X12401Y12010D01*
X12495Y11967D01*
X12515Y11965D01*
X12533Y11957D01*
X12700Y11939D01*
X698500Y11939D01*
X698520Y11942D01*
G37*
%LPC*%
G36*
X138753Y73913D02*
X138753Y73913D01*
X112013Y100653D01*
X112013Y121647D01*
X113576Y123210D01*
X123938Y133572D01*
X124006Y133666D01*
X124076Y133760D01*
X124078Y133766D01*
X124081Y133771D01*
X124116Y133883D01*
X124152Y133994D01*
X124152Y134001D01*
X124154Y134007D01*
X124151Y134123D01*
X124150Y134240D01*
X124148Y134247D01*
X124147Y134252D01*
X124141Y134270D01*
X124103Y134401D01*
X122775Y137607D01*
X122775Y141793D01*
X124378Y145662D01*
X127338Y148622D01*
X131207Y150225D01*
X135393Y150225D01*
X139262Y148622D01*
X142222Y145662D01*
X143825Y141793D01*
X143825Y137607D01*
X142222Y133738D01*
X139262Y130778D01*
X135393Y129175D01*
X131207Y129175D01*
X128001Y130503D01*
X127888Y130530D01*
X127774Y130558D01*
X127768Y130558D01*
X127762Y130559D01*
X127645Y130548D01*
X127529Y130539D01*
X127523Y130537D01*
X127517Y130536D01*
X127409Y130488D01*
X127303Y130443D01*
X127297Y130438D01*
X127292Y130436D01*
X127279Y130423D01*
X127172Y130338D01*
X116810Y119976D01*
X116757Y119902D01*
X116697Y119832D01*
X116685Y119802D01*
X116666Y119776D01*
X116639Y119689D01*
X116605Y119604D01*
X116601Y119563D01*
X116594Y119541D01*
X116595Y119509D01*
X116587Y119437D01*
X116587Y102863D01*
X116601Y102772D01*
X116609Y102682D01*
X116621Y102652D01*
X116626Y102620D01*
X116669Y102539D01*
X116705Y102455D01*
X116731Y102423D01*
X116742Y102402D01*
X116765Y102380D01*
X116810Y102324D01*
X140424Y78710D01*
X140498Y78657D01*
X140568Y78597D01*
X140598Y78585D01*
X140624Y78566D01*
X140711Y78539D01*
X140796Y78505D01*
X140837Y78501D01*
X140859Y78494D01*
X140891Y78495D01*
X140963Y78487D01*
X163837Y78487D01*
X163928Y78501D01*
X164018Y78509D01*
X164048Y78521D01*
X164080Y78526D01*
X164161Y78569D01*
X164245Y78605D01*
X164277Y78631D01*
X164298Y78642D01*
X164320Y78665D01*
X164376Y78710D01*
X173337Y87670D01*
X173363Y87708D01*
X173397Y87739D01*
X173435Y87807D01*
X173480Y87870D01*
X173494Y87914D01*
X173516Y87954D01*
X173530Y88031D01*
X173552Y88105D01*
X173551Y88151D01*
X173559Y88196D01*
X173548Y88273D01*
X173546Y88351D01*
X173530Y88394D01*
X173524Y88440D01*
X173488Y88509D01*
X173462Y88582D01*
X173433Y88618D01*
X173412Y88659D01*
X173357Y88713D01*
X173308Y88774D01*
X173269Y88799D01*
X173237Y88831D01*
X173117Y88897D01*
X173101Y88907D01*
X173096Y88908D01*
X173090Y88912D01*
X170139Y90134D01*
X166334Y93939D01*
X164275Y98910D01*
X164275Y104290D01*
X166334Y109261D01*
X170139Y113066D01*
X175110Y115125D01*
X180490Y115125D01*
X185395Y113093D01*
X185508Y113067D01*
X185622Y113038D01*
X185628Y113038D01*
X185634Y113037D01*
X185751Y113048D01*
X185867Y113057D01*
X185873Y113060D01*
X185879Y113060D01*
X185987Y113108D01*
X186093Y113153D01*
X186099Y113158D01*
X186104Y113160D01*
X186118Y113173D01*
X186224Y113258D01*
X238790Y165824D01*
X238843Y165898D01*
X238903Y165968D01*
X238915Y165998D01*
X238934Y166024D01*
X238961Y166111D01*
X238995Y166196D01*
X238999Y166237D01*
X239006Y166259D01*
X239005Y166291D01*
X239013Y166363D01*
X239013Y295690D01*
X238994Y295805D01*
X238977Y295921D01*
X238975Y295927D01*
X238974Y295933D01*
X238919Y296035D01*
X238866Y296140D01*
X238861Y296145D01*
X238858Y296150D01*
X238774Y296230D01*
X238690Y296312D01*
X238684Y296316D01*
X238680Y296319D01*
X238663Y296327D01*
X238543Y296393D01*
X236766Y297129D01*
X236652Y297156D01*
X236539Y297185D01*
X236533Y297184D01*
X236527Y297186D01*
X236410Y297175D01*
X236294Y297166D01*
X236288Y297163D01*
X236282Y297163D01*
X236174Y297115D01*
X236067Y297069D01*
X236062Y297065D01*
X236057Y297063D01*
X236043Y297050D01*
X235936Y296964D01*
X228785Y289813D01*
X164153Y289813D01*
X150113Y303853D01*
X150113Y410053D01*
X150094Y410168D01*
X150077Y410284D01*
X150075Y410289D01*
X150074Y410296D01*
X150019Y410398D01*
X149966Y410503D01*
X149961Y410507D01*
X149958Y410513D01*
X149874Y410593D01*
X149790Y410675D01*
X149784Y410679D01*
X149780Y410682D01*
X149763Y410690D01*
X149643Y410756D01*
X147436Y411670D01*
X144970Y414136D01*
X144056Y416343D01*
X143995Y416442D01*
X143935Y416543D01*
X143930Y416547D01*
X143926Y416552D01*
X143836Y416627D01*
X143748Y416703D01*
X143742Y416705D01*
X143737Y416709D01*
X143629Y416751D01*
X143519Y416795D01*
X143512Y416796D01*
X143507Y416797D01*
X143489Y416798D01*
X143353Y416813D01*
X87953Y416813D01*
X86390Y418376D01*
X30180Y474586D01*
X30086Y474653D01*
X30072Y474664D01*
X30067Y474668D01*
X30065Y474669D01*
X29992Y474724D01*
X29986Y474726D01*
X29981Y474729D01*
X29870Y474763D01*
X29758Y474800D01*
X29752Y474800D01*
X29746Y474802D01*
X29629Y474799D01*
X29512Y474797D01*
X29505Y474795D01*
X29500Y474795D01*
X29482Y474789D01*
X29351Y474751D01*
X27143Y473836D01*
X23657Y473836D01*
X20436Y475170D01*
X17970Y477636D01*
X16636Y480857D01*
X16636Y484343D01*
X17970Y487564D01*
X20436Y490030D01*
X23657Y491364D01*
X27143Y491364D01*
X29351Y490449D01*
X29464Y490423D01*
X29578Y490394D01*
X29584Y490395D01*
X29590Y490393D01*
X29707Y490404D01*
X29823Y490413D01*
X29829Y490416D01*
X29835Y490416D01*
X29943Y490464D01*
X30049Y490510D01*
X30055Y490514D01*
X30060Y490516D01*
X30074Y490529D01*
X30180Y490614D01*
X114590Y575024D01*
X116153Y576587D01*
X136114Y576587D01*
X136134Y576590D01*
X136153Y576588D01*
X136255Y576610D01*
X136357Y576626D01*
X136374Y576636D01*
X136394Y576640D01*
X136483Y576693D01*
X136574Y576742D01*
X136588Y576756D01*
X136605Y576766D01*
X136672Y576845D01*
X136744Y576920D01*
X136752Y576938D01*
X136765Y576953D01*
X136804Y577049D01*
X136847Y577143D01*
X136849Y577163D01*
X136857Y577181D01*
X136875Y577348D01*
X136875Y588232D01*
X137768Y589125D01*
X163032Y589125D01*
X163925Y588232D01*
X163925Y584708D01*
X163928Y584688D01*
X163926Y584669D01*
X163948Y584567D01*
X163964Y584465D01*
X163974Y584448D01*
X163978Y584428D01*
X164031Y584339D01*
X164080Y584248D01*
X164094Y584234D01*
X164104Y584217D01*
X164183Y584150D01*
X164258Y584078D01*
X164276Y584070D01*
X164291Y584057D01*
X164387Y584018D01*
X164481Y583975D01*
X164501Y583973D01*
X164519Y583965D01*
X164686Y583947D01*
X447294Y583947D01*
X447314Y583950D01*
X447333Y583948D01*
X447435Y583970D01*
X447537Y583986D01*
X447554Y583996D01*
X447574Y584000D01*
X447663Y584053D01*
X447754Y584102D01*
X447768Y584116D01*
X447785Y584126D01*
X447852Y584205D01*
X447924Y584280D01*
X447932Y584298D01*
X447945Y584313D01*
X447984Y584409D01*
X448027Y584503D01*
X448029Y584523D01*
X448037Y584541D01*
X448055Y584708D01*
X448055Y584995D01*
X450608Y591156D01*
X455324Y595872D01*
X461485Y598425D01*
X468155Y598425D01*
X474316Y595872D01*
X479032Y591156D01*
X481585Y584995D01*
X481585Y578325D01*
X479032Y572164D01*
X474316Y567448D01*
X468155Y564895D01*
X461485Y564895D01*
X455324Y567448D01*
X450608Y572164D01*
X448055Y578325D01*
X448055Y578612D01*
X448052Y578632D01*
X448054Y578651D01*
X448032Y578753D01*
X448016Y578855D01*
X448006Y578872D01*
X448002Y578892D01*
X447949Y578981D01*
X447900Y579072D01*
X447886Y579086D01*
X447876Y579103D01*
X447797Y579170D01*
X447722Y579242D01*
X447704Y579250D01*
X447689Y579263D01*
X447593Y579302D01*
X447499Y579345D01*
X447479Y579347D01*
X447461Y579355D01*
X447294Y579373D01*
X164686Y579373D01*
X164666Y579370D01*
X164647Y579372D01*
X164545Y579350D01*
X164443Y579334D01*
X164426Y579324D01*
X164406Y579320D01*
X164317Y579267D01*
X164226Y579218D01*
X164212Y579204D01*
X164195Y579194D01*
X164128Y579115D01*
X164056Y579040D01*
X164048Y579022D01*
X164035Y579007D01*
X163996Y578911D01*
X163953Y578817D01*
X163951Y578797D01*
X163943Y578779D01*
X163925Y578612D01*
X163925Y561968D01*
X163032Y561075D01*
X137768Y561075D01*
X136875Y561968D01*
X136875Y571252D01*
X136872Y571272D01*
X136874Y571291D01*
X136852Y571393D01*
X136836Y571495D01*
X136826Y571512D01*
X136822Y571532D01*
X136769Y571621D01*
X136720Y571712D01*
X136706Y571726D01*
X136696Y571743D01*
X136617Y571810D01*
X136542Y571882D01*
X136524Y571890D01*
X136509Y571903D01*
X136413Y571942D01*
X136319Y571985D01*
X136299Y571987D01*
X136281Y571995D01*
X136114Y572013D01*
X118363Y572013D01*
X118272Y571999D01*
X118182Y571991D01*
X118152Y571979D01*
X118120Y571974D01*
X118039Y571931D01*
X117955Y571895D01*
X117923Y571869D01*
X117902Y571858D01*
X117880Y571835D01*
X117824Y571790D01*
X33414Y487380D01*
X33347Y487286D01*
X33276Y487192D01*
X33274Y487186D01*
X33271Y487181D01*
X33236Y487069D01*
X33200Y486958D01*
X33200Y486952D01*
X33198Y486946D01*
X33201Y486829D01*
X33203Y486712D01*
X33205Y486705D01*
X33205Y486700D01*
X33211Y486682D01*
X33249Y486551D01*
X34164Y484343D01*
X34164Y480857D01*
X33249Y478649D01*
X33223Y478536D01*
X33194Y478422D01*
X33195Y478416D01*
X33193Y478410D01*
X33204Y478293D01*
X33213Y478177D01*
X33216Y478171D01*
X33216Y478165D01*
X33264Y478057D01*
X33310Y477951D01*
X33314Y477945D01*
X33316Y477940D01*
X33329Y477926D01*
X33414Y477820D01*
X89624Y421610D01*
X89698Y421557D01*
X89768Y421497D01*
X89798Y421485D01*
X89824Y421466D01*
X89911Y421439D01*
X89996Y421405D01*
X90037Y421401D01*
X90059Y421394D01*
X90091Y421395D01*
X90163Y421387D01*
X143353Y421387D01*
X143468Y421406D01*
X143584Y421423D01*
X143589Y421425D01*
X143596Y421426D01*
X143698Y421481D01*
X143803Y421534D01*
X143807Y421539D01*
X143813Y421542D01*
X143893Y421626D01*
X143975Y421710D01*
X143979Y421716D01*
X143982Y421720D01*
X143990Y421737D01*
X144056Y421857D01*
X144970Y424064D01*
X147436Y426530D01*
X150657Y427864D01*
X154143Y427864D01*
X157364Y426530D01*
X159830Y424064D01*
X161164Y420843D01*
X161164Y417357D01*
X159830Y414136D01*
X157364Y411670D01*
X155157Y410756D01*
X155057Y410694D01*
X154957Y410635D01*
X154953Y410630D01*
X154948Y410626D01*
X154873Y410536D01*
X154797Y410448D01*
X154795Y410442D01*
X154791Y410437D01*
X154749Y410329D01*
X154705Y410219D01*
X154704Y410212D01*
X154703Y410207D01*
X154702Y410189D01*
X154687Y410053D01*
X154687Y306063D01*
X154701Y305972D01*
X154709Y305882D01*
X154721Y305852D01*
X154726Y305820D01*
X154769Y305739D01*
X154805Y305655D01*
X154831Y305623D01*
X154842Y305602D01*
X154865Y305580D01*
X154910Y305524D01*
X165824Y294610D01*
X165898Y294557D01*
X165968Y294497D01*
X165998Y294485D01*
X166024Y294466D01*
X166111Y294439D01*
X166196Y294405D01*
X166237Y294401D01*
X166259Y294394D01*
X166291Y294395D01*
X166363Y294387D01*
X226575Y294387D01*
X226666Y294401D01*
X226756Y294409D01*
X226786Y294421D01*
X226818Y294426D01*
X226899Y294469D01*
X226983Y294505D01*
X227015Y294531D01*
X227036Y294542D01*
X227058Y294565D01*
X227114Y294610D01*
X232702Y300198D01*
X232770Y300292D01*
X232840Y300387D01*
X232842Y300393D01*
X232846Y300398D01*
X232880Y300509D01*
X232917Y300621D01*
X232917Y300627D01*
X232918Y300633D01*
X232915Y300750D01*
X232914Y300867D01*
X232912Y300874D01*
X232912Y300879D01*
X232906Y300897D01*
X232867Y301028D01*
X231774Y303667D01*
X231774Y307457D01*
X233224Y310958D01*
X235904Y313638D01*
X239405Y315088D01*
X243195Y315088D01*
X246696Y313638D01*
X249376Y310958D01*
X250826Y307457D01*
X250826Y303667D01*
X249376Y300166D01*
X246696Y297486D01*
X244057Y296393D01*
X243957Y296331D01*
X243857Y296272D01*
X243853Y296267D01*
X243848Y296264D01*
X243773Y296173D01*
X243697Y296085D01*
X243695Y296079D01*
X243691Y296074D01*
X243649Y295966D01*
X243605Y295857D01*
X243604Y295849D01*
X243603Y295845D01*
X243602Y295826D01*
X243587Y295690D01*
X243587Y164153D01*
X189458Y110024D01*
X189391Y109930D01*
X189320Y109836D01*
X189318Y109830D01*
X189315Y109825D01*
X189281Y109714D01*
X189244Y109602D01*
X189244Y109595D01*
X189242Y109590D01*
X189245Y109473D01*
X189246Y109356D01*
X189249Y109349D01*
X189249Y109344D01*
X189255Y109326D01*
X189293Y109195D01*
X191325Y104290D01*
X191325Y98910D01*
X189266Y93939D01*
X185461Y90134D01*
X180468Y88066D01*
X180434Y88061D01*
X180344Y88053D01*
X180314Y88041D01*
X180282Y88036D01*
X180201Y87993D01*
X180117Y87957D01*
X180085Y87931D01*
X180064Y87920D01*
X180054Y87910D01*
X180053Y87909D01*
X180040Y87895D01*
X179986Y87852D01*
X166047Y73913D01*
X138753Y73913D01*
G37*
%LPD*%
%LPC*%
G36*
X591025Y564895D02*
X591025Y564895D01*
X584864Y567448D01*
X580148Y572164D01*
X577595Y578325D01*
X577595Y584995D01*
X580148Y591156D01*
X584864Y595872D01*
X591025Y598425D01*
X593852Y598425D01*
X593872Y598428D01*
X593891Y598426D01*
X593993Y598448D01*
X594095Y598464D01*
X594112Y598474D01*
X594132Y598478D01*
X594221Y598531D01*
X594312Y598580D01*
X594326Y598594D01*
X594343Y598604D01*
X594410Y598683D01*
X594482Y598758D01*
X594490Y598776D01*
X594503Y598791D01*
X594542Y598887D01*
X594585Y598981D01*
X594587Y599001D01*
X594595Y599019D01*
X594613Y599186D01*
X594613Y608337D01*
X594599Y608428D01*
X594591Y608518D01*
X594579Y608548D01*
X594574Y608580D01*
X594531Y608661D01*
X594495Y608745D01*
X594469Y608777D01*
X594458Y608798D01*
X594435Y608820D01*
X594390Y608876D01*
X581952Y621314D01*
X581878Y621367D01*
X581808Y621427D01*
X581778Y621439D01*
X581752Y621458D01*
X581665Y621485D01*
X581580Y621519D01*
X581539Y621523D01*
X581517Y621530D01*
X581485Y621529D01*
X581413Y621537D01*
X276225Y621537D01*
X276205Y621534D01*
X276186Y621536D01*
X276084Y621514D01*
X275982Y621498D01*
X275965Y621488D01*
X275945Y621484D01*
X275856Y621431D01*
X275765Y621382D01*
X275751Y621368D01*
X275734Y621358D01*
X275667Y621279D01*
X275595Y621204D01*
X275587Y621186D01*
X275574Y621171D01*
X275535Y621075D01*
X275492Y620981D01*
X275490Y620961D01*
X275482Y620943D01*
X275464Y620776D01*
X275464Y615953D01*
X274571Y615060D01*
X258829Y615060D01*
X257936Y615953D01*
X257936Y631695D01*
X258829Y632588D01*
X274571Y632588D01*
X275464Y631695D01*
X275464Y626872D01*
X275467Y626852D01*
X275465Y626833D01*
X275487Y626731D01*
X275503Y626629D01*
X275513Y626612D01*
X275517Y626592D01*
X275570Y626503D01*
X275619Y626412D01*
X275633Y626398D01*
X275643Y626381D01*
X275722Y626314D01*
X275797Y626242D01*
X275815Y626234D01*
X275830Y626221D01*
X275926Y626182D01*
X276020Y626139D01*
X276040Y626137D01*
X276058Y626129D01*
X276225Y626111D01*
X583623Y626111D01*
X599187Y610547D01*
X599187Y598315D01*
X599206Y598201D01*
X599223Y598084D01*
X599225Y598079D01*
X599226Y598073D01*
X599281Y597970D01*
X599334Y597865D01*
X599339Y597861D01*
X599342Y597855D01*
X599426Y597775D01*
X599510Y597693D01*
X599516Y597689D01*
X599520Y597686D01*
X599537Y597678D01*
X599657Y597612D01*
X603856Y595872D01*
X608572Y591156D01*
X611125Y584995D01*
X611125Y578325D01*
X608572Y572164D01*
X603856Y567448D01*
X597695Y564895D01*
X591025Y564895D01*
G37*
%LPD*%
%LPC*%
G36*
X40768Y561075D02*
X40768Y561075D01*
X39875Y561968D01*
X39875Y591232D01*
X40768Y592125D01*
X65376Y592125D01*
X65466Y592139D01*
X65557Y592147D01*
X65586Y592159D01*
X65618Y592164D01*
X65699Y592207D01*
X65783Y592243D01*
X65815Y592269D01*
X65836Y592280D01*
X65858Y592303D01*
X65914Y592348D01*
X118390Y644824D01*
X119953Y646387D01*
X136114Y646387D01*
X136134Y646390D01*
X136153Y646388D01*
X136255Y646410D01*
X136357Y646426D01*
X136374Y646436D01*
X136394Y646440D01*
X136483Y646493D01*
X136574Y646542D01*
X136588Y646556D01*
X136605Y646566D01*
X136672Y646645D01*
X136744Y646720D01*
X136752Y646738D01*
X136765Y646753D01*
X136804Y646849D01*
X136847Y646943D01*
X136849Y646963D01*
X136857Y646981D01*
X136875Y647148D01*
X136875Y657232D01*
X137768Y658125D01*
X163032Y658125D01*
X163925Y657232D01*
X163925Y638048D01*
X163928Y638028D01*
X163926Y638009D01*
X163948Y637907D01*
X163964Y637805D01*
X163974Y637788D01*
X163978Y637768D01*
X164031Y637679D01*
X164080Y637588D01*
X164094Y637574D01*
X164104Y637557D01*
X164183Y637490D01*
X164258Y637418D01*
X164276Y637410D01*
X164291Y637397D01*
X164387Y637358D01*
X164481Y637315D01*
X164501Y637313D01*
X164519Y637305D01*
X164686Y637287D01*
X204147Y637287D01*
X205710Y635724D01*
X211120Y630314D01*
X211214Y630246D01*
X211308Y630176D01*
X211314Y630174D01*
X211319Y630171D01*
X211430Y630137D01*
X211542Y630100D01*
X211548Y630100D01*
X211554Y630098D01*
X211671Y630101D01*
X211788Y630103D01*
X211795Y630105D01*
X211800Y630105D01*
X211818Y630111D01*
X211949Y630149D01*
X214157Y631064D01*
X217643Y631064D01*
X220864Y629730D01*
X223330Y627264D01*
X224664Y624043D01*
X224664Y620557D01*
X223330Y617336D01*
X220864Y614870D01*
X217643Y613536D01*
X214157Y613536D01*
X210936Y614870D01*
X208470Y617336D01*
X207136Y620557D01*
X207136Y624043D01*
X208051Y626251D01*
X208077Y626364D01*
X208106Y626478D01*
X208105Y626484D01*
X208107Y626490D01*
X208096Y626607D01*
X208087Y626723D01*
X208084Y626729D01*
X208084Y626735D01*
X208036Y626843D01*
X207990Y626949D01*
X207986Y626955D01*
X207984Y626960D01*
X207971Y626974D01*
X207886Y627080D01*
X202476Y632490D01*
X202402Y632543D01*
X202332Y632603D01*
X202302Y632615D01*
X202276Y632634D01*
X202189Y632661D01*
X202104Y632695D01*
X202063Y632699D01*
X202041Y632706D01*
X202009Y632705D01*
X201937Y632713D01*
X164686Y632713D01*
X164666Y632710D01*
X164647Y632712D01*
X164545Y632690D01*
X164443Y632674D01*
X164426Y632664D01*
X164406Y632660D01*
X164317Y632607D01*
X164226Y632558D01*
X164212Y632544D01*
X164195Y632534D01*
X164128Y632455D01*
X164056Y632380D01*
X164048Y632362D01*
X164035Y632347D01*
X163996Y632251D01*
X163953Y632157D01*
X163951Y632137D01*
X163943Y632119D01*
X163925Y631952D01*
X163925Y630968D01*
X163032Y630075D01*
X137768Y630075D01*
X136875Y630968D01*
X136875Y641052D01*
X136872Y641072D01*
X136874Y641091D01*
X136852Y641193D01*
X136836Y641295D01*
X136826Y641312D01*
X136822Y641332D01*
X136769Y641421D01*
X136720Y641512D01*
X136706Y641526D01*
X136696Y641543D01*
X136617Y641610D01*
X136542Y641682D01*
X136524Y641690D01*
X136509Y641703D01*
X136413Y641742D01*
X136319Y641785D01*
X136299Y641787D01*
X136281Y641795D01*
X136114Y641813D01*
X122163Y641813D01*
X122072Y641799D01*
X121982Y641791D01*
X121952Y641779D01*
X121920Y641774D01*
X121839Y641731D01*
X121755Y641695D01*
X121723Y641669D01*
X121702Y641658D01*
X121680Y641635D01*
X121624Y641590D01*
X67148Y587114D01*
X67095Y587040D01*
X67035Y586970D01*
X67023Y586940D01*
X67004Y586914D01*
X66977Y586827D01*
X66943Y586742D01*
X66939Y586701D01*
X66932Y586679D01*
X66933Y586647D01*
X66925Y586576D01*
X66925Y561968D01*
X66032Y561075D01*
X40768Y561075D01*
G37*
%LPD*%
%LPC*%
G36*
X232667Y346074D02*
X232667Y346074D01*
X231774Y346967D01*
X231774Y364233D01*
X232667Y365126D01*
X238252Y365126D01*
X238272Y365129D01*
X238291Y365127D01*
X238393Y365149D01*
X238495Y365165D01*
X238512Y365175D01*
X238532Y365179D01*
X238621Y365232D01*
X238712Y365281D01*
X238726Y365295D01*
X238743Y365305D01*
X238810Y365384D01*
X238882Y365459D01*
X238890Y365477D01*
X238903Y365492D01*
X238942Y365588D01*
X238985Y365682D01*
X238987Y365702D01*
X238995Y365720D01*
X239013Y365887D01*
X239013Y417837D01*
X238999Y417928D01*
X238991Y418018D01*
X238979Y418048D01*
X238974Y418080D01*
X238931Y418161D01*
X238895Y418245D01*
X238869Y418277D01*
X238858Y418298D01*
X238835Y418320D01*
X238790Y418376D01*
X232910Y424256D01*
X232894Y424268D01*
X232881Y424283D01*
X232794Y424339D01*
X232710Y424400D01*
X232691Y424406D01*
X232674Y424416D01*
X232574Y424442D01*
X232475Y424472D01*
X232455Y424471D01*
X232436Y424476D01*
X232333Y424468D01*
X232229Y424466D01*
X232211Y424459D01*
X232191Y424457D01*
X232096Y424417D01*
X231998Y424381D01*
X231983Y424369D01*
X231964Y424361D01*
X231833Y424256D01*
X231757Y424179D01*
X225443Y424179D01*
X220979Y428643D01*
X220979Y428752D01*
X220976Y428772D01*
X220978Y428791D01*
X220956Y428893D01*
X220940Y428995D01*
X220930Y429012D01*
X220926Y429032D01*
X220873Y429121D01*
X220824Y429212D01*
X220810Y429226D01*
X220800Y429243D01*
X220721Y429310D01*
X220646Y429382D01*
X220628Y429390D01*
X220613Y429403D01*
X220517Y429442D01*
X220423Y429485D01*
X220403Y429487D01*
X220385Y429495D01*
X220218Y429513D01*
X164153Y429513D01*
X137413Y456253D01*
X137413Y469323D01*
X144937Y476847D01*
X144990Y476921D01*
X145050Y476991D01*
X145062Y477021D01*
X145081Y477047D01*
X145108Y477134D01*
X145142Y477219D01*
X145146Y477260D01*
X145153Y477282D01*
X145152Y477314D01*
X145160Y477386D01*
X145160Y490471D01*
X146053Y491364D01*
X161795Y491364D01*
X162688Y490471D01*
X162688Y474729D01*
X161795Y473836D01*
X148710Y473836D01*
X148619Y473822D01*
X148529Y473814D01*
X148499Y473802D01*
X148467Y473797D01*
X148386Y473754D01*
X148302Y473718D01*
X148270Y473692D01*
X148249Y473681D01*
X148227Y473658D01*
X148171Y473613D01*
X142210Y467652D01*
X142157Y467578D01*
X142097Y467508D01*
X142085Y467478D01*
X142066Y467452D01*
X142039Y467365D01*
X142005Y467280D01*
X142001Y467239D01*
X141994Y467217D01*
X141995Y467185D01*
X141987Y467113D01*
X141987Y458463D01*
X142001Y458372D01*
X142009Y458282D01*
X142021Y458252D01*
X142026Y458220D01*
X142069Y458139D01*
X142105Y458055D01*
X142131Y458023D01*
X142142Y458002D01*
X142165Y457980D01*
X142210Y457924D01*
X165824Y434310D01*
X165898Y434257D01*
X165968Y434197D01*
X165998Y434185D01*
X166024Y434166D01*
X166111Y434139D01*
X166196Y434105D01*
X166237Y434101D01*
X166259Y434094D01*
X166291Y434095D01*
X166363Y434087D01*
X220218Y434087D01*
X220238Y434090D01*
X220257Y434088D01*
X220359Y434110D01*
X220461Y434126D01*
X220478Y434136D01*
X220498Y434140D01*
X220587Y434193D01*
X220678Y434242D01*
X220692Y434256D01*
X220709Y434266D01*
X220776Y434345D01*
X220848Y434420D01*
X220856Y434438D01*
X220869Y434453D01*
X220908Y434549D01*
X220951Y434643D01*
X220953Y434663D01*
X220961Y434681D01*
X220979Y434848D01*
X220979Y434957D01*
X225443Y439421D01*
X231757Y439421D01*
X236221Y434957D01*
X236221Y428643D01*
X236144Y428567D01*
X236132Y428550D01*
X236117Y428538D01*
X236061Y428451D01*
X236000Y428367D01*
X235994Y428348D01*
X235984Y428331D01*
X235958Y428231D01*
X235928Y428132D01*
X235929Y428112D01*
X235924Y428093D01*
X235932Y427989D01*
X235934Y427886D01*
X235941Y427867D01*
X235943Y427847D01*
X235983Y427752D01*
X236019Y427655D01*
X236031Y427639D01*
X236039Y427621D01*
X236144Y427490D01*
X242024Y421610D01*
X243587Y420047D01*
X243587Y365887D01*
X243588Y365881D01*
X243588Y365880D01*
X243590Y365867D01*
X243588Y365848D01*
X243610Y365746D01*
X243626Y365644D01*
X243636Y365627D01*
X243640Y365607D01*
X243693Y365518D01*
X243742Y365427D01*
X243756Y365413D01*
X243766Y365396D01*
X243845Y365329D01*
X243920Y365257D01*
X243938Y365249D01*
X243953Y365236D01*
X244049Y365197D01*
X244143Y365154D01*
X244163Y365152D01*
X244181Y365144D01*
X244348Y365126D01*
X249933Y365126D01*
X250826Y364233D01*
X250826Y346967D01*
X249933Y346074D01*
X232667Y346074D01*
G37*
%LPD*%
%LPC*%
G36*
X175110Y164275D02*
X175110Y164275D01*
X170139Y166334D01*
X166334Y170139D01*
X164275Y175110D01*
X164275Y180490D01*
X166307Y185395D01*
X166333Y185508D01*
X166362Y185622D01*
X166362Y185628D01*
X166363Y185634D01*
X166352Y185751D01*
X166343Y185867D01*
X166340Y185873D01*
X166340Y185879D01*
X166292Y185987D01*
X166247Y186093D01*
X166242Y186099D01*
X166240Y186104D01*
X166227Y186118D01*
X166142Y186224D01*
X112013Y240353D01*
X112013Y319913D01*
X112010Y319933D01*
X112012Y319952D01*
X111990Y320054D01*
X111974Y320156D01*
X111964Y320173D01*
X111960Y320193D01*
X111907Y320282D01*
X111858Y320373D01*
X111844Y320387D01*
X111834Y320404D01*
X111755Y320471D01*
X111680Y320543D01*
X111662Y320551D01*
X111647Y320564D01*
X111551Y320603D01*
X111457Y320646D01*
X111437Y320648D01*
X111419Y320656D01*
X111252Y320674D01*
X105667Y320674D01*
X104774Y321567D01*
X104774Y338833D01*
X105667Y339726D01*
X122933Y339726D01*
X123826Y338833D01*
X123826Y321567D01*
X122933Y320674D01*
X117348Y320674D01*
X117328Y320671D01*
X117309Y320673D01*
X117207Y320651D01*
X117105Y320635D01*
X117088Y320625D01*
X117068Y320621D01*
X116979Y320568D01*
X116888Y320519D01*
X116874Y320505D01*
X116857Y320495D01*
X116790Y320416D01*
X116718Y320341D01*
X116710Y320323D01*
X116697Y320308D01*
X116658Y320212D01*
X116615Y320118D01*
X116613Y320098D01*
X116605Y320080D01*
X116587Y319913D01*
X116587Y242563D01*
X116601Y242472D01*
X116609Y242382D01*
X116621Y242352D01*
X116626Y242320D01*
X116669Y242239D01*
X116705Y242155D01*
X116731Y242123D01*
X116742Y242102D01*
X116765Y242080D01*
X116810Y242024D01*
X169376Y189458D01*
X169470Y189391D01*
X169564Y189320D01*
X169570Y189318D01*
X169575Y189315D01*
X169686Y189281D01*
X169798Y189244D01*
X169805Y189244D01*
X169810Y189242D01*
X169927Y189245D01*
X170044Y189246D01*
X170051Y189249D01*
X170056Y189249D01*
X170074Y189255D01*
X170205Y189293D01*
X175110Y191325D01*
X180490Y191325D01*
X185461Y189266D01*
X189266Y185461D01*
X191325Y180490D01*
X191325Y175110D01*
X189266Y170139D01*
X185461Y166334D01*
X180490Y164275D01*
X175110Y164275D01*
G37*
%LPD*%
%LPC*%
G36*
X62367Y320674D02*
X62367Y320674D01*
X58866Y322124D01*
X56186Y324804D01*
X54736Y328305D01*
X54736Y332095D01*
X55829Y334734D01*
X55856Y334848D01*
X55885Y334961D01*
X55884Y334967D01*
X55886Y334973D01*
X55875Y335090D01*
X55866Y335206D01*
X55863Y335212D01*
X55863Y335218D01*
X55815Y335326D01*
X55769Y335433D01*
X55765Y335438D01*
X55763Y335443D01*
X55750Y335457D01*
X55664Y335564D01*
X23113Y368115D01*
X23113Y409575D01*
X23110Y409595D01*
X23112Y409614D01*
X23090Y409716D01*
X23074Y409818D01*
X23064Y409835D01*
X23060Y409855D01*
X23007Y409944D01*
X22958Y410035D01*
X22944Y410049D01*
X22934Y410066D01*
X22855Y410133D01*
X22780Y410205D01*
X22762Y410213D01*
X22747Y410226D01*
X22651Y410265D01*
X22557Y410308D01*
X22537Y410310D01*
X22519Y410318D01*
X22352Y410336D01*
X16005Y410336D01*
X15112Y411229D01*
X15112Y426971D01*
X16005Y427864D01*
X31747Y427864D01*
X32640Y426971D01*
X32640Y411229D01*
X31747Y410336D01*
X28448Y410336D01*
X28428Y410333D01*
X28409Y410335D01*
X28307Y410313D01*
X28205Y410297D01*
X28188Y410287D01*
X28168Y410283D01*
X28079Y410230D01*
X27988Y410181D01*
X27974Y410167D01*
X27957Y410157D01*
X27890Y410078D01*
X27818Y410003D01*
X27810Y409985D01*
X27797Y409970D01*
X27758Y409874D01*
X27715Y409780D01*
X27713Y409760D01*
X27705Y409742D01*
X27687Y409575D01*
X27687Y370325D01*
X27701Y370234D01*
X27709Y370144D01*
X27721Y370114D01*
X27726Y370082D01*
X27769Y370001D01*
X27805Y369917D01*
X27831Y369885D01*
X27842Y369864D01*
X27865Y369842D01*
X27910Y369786D01*
X58898Y338798D01*
X58992Y338730D01*
X59087Y338660D01*
X59093Y338658D01*
X59098Y338654D01*
X59209Y338620D01*
X59321Y338583D01*
X59327Y338583D01*
X59333Y338582D01*
X59450Y338585D01*
X59567Y338586D01*
X59574Y338588D01*
X59579Y338588D01*
X59597Y338594D01*
X59728Y338633D01*
X62367Y339726D01*
X66157Y339726D01*
X69658Y338276D01*
X72338Y335596D01*
X73788Y332095D01*
X73788Y328305D01*
X72338Y324804D01*
X69658Y322124D01*
X66157Y320674D01*
X62367Y320674D01*
G37*
%LPD*%
%LPC*%
G36*
X639588Y441959D02*
X639588Y441959D01*
X633987Y444280D01*
X629700Y448567D01*
X627379Y454168D01*
X627379Y460232D01*
X629700Y465833D01*
X633987Y470120D01*
X639588Y472441D01*
X645652Y472441D01*
X651253Y470120D01*
X655540Y465833D01*
X657861Y460232D01*
X657861Y454168D01*
X655540Y448567D01*
X651253Y444280D01*
X645652Y441959D01*
X639588Y441959D01*
G37*
%LPD*%
%LPC*%
G36*
X416068Y307339D02*
X416068Y307339D01*
X410467Y309660D01*
X406180Y313947D01*
X403859Y319548D01*
X403859Y325612D01*
X406180Y331213D01*
X410467Y335500D01*
X416068Y337821D01*
X422132Y337821D01*
X427733Y335500D01*
X432020Y331213D01*
X434341Y325612D01*
X434341Y319548D01*
X432020Y313947D01*
X427733Y309660D01*
X422132Y307339D01*
X416068Y307339D01*
G37*
%LPD*%
%LPC*%
G36*
X639588Y172719D02*
X639588Y172719D01*
X633987Y175040D01*
X629700Y179327D01*
X627379Y184928D01*
X627379Y190992D01*
X629700Y196593D01*
X633987Y200880D01*
X639588Y203201D01*
X645652Y203201D01*
X651253Y200880D01*
X655540Y196593D01*
X657861Y190992D01*
X657861Y184928D01*
X655540Y179327D01*
X651253Y175040D01*
X645652Y172719D01*
X639588Y172719D01*
G37*
%LPD*%
%LPC*%
G36*
X225443Y449579D02*
X225443Y449579D01*
X220979Y454043D01*
X220979Y460357D01*
X225443Y464821D01*
X231757Y464821D01*
X236221Y460357D01*
X236221Y460248D01*
X236224Y460228D01*
X236222Y460209D01*
X236244Y460107D01*
X236260Y460005D01*
X236270Y459988D01*
X236274Y459968D01*
X236327Y459879D01*
X236376Y459788D01*
X236390Y459774D01*
X236400Y459757D01*
X236479Y459690D01*
X236554Y459618D01*
X236572Y459610D01*
X236587Y459597D01*
X236683Y459558D01*
X236777Y459515D01*
X236797Y459513D01*
X236815Y459505D01*
X236982Y459487D01*
X252737Y459487D01*
X252828Y459501D01*
X252918Y459509D01*
X252948Y459521D01*
X252980Y459526D01*
X253061Y459569D01*
X253145Y459605D01*
X253177Y459631D01*
X253198Y459642D01*
X253220Y459665D01*
X253276Y459710D01*
X264190Y470624D01*
X264243Y470698D01*
X264303Y470768D01*
X264315Y470798D01*
X264334Y470824D01*
X264361Y470911D01*
X264395Y470996D01*
X264399Y471037D01*
X264406Y471059D01*
X264405Y471091D01*
X264413Y471163D01*
X264413Y486253D01*
X264394Y486368D01*
X264377Y486484D01*
X264375Y486489D01*
X264374Y486496D01*
X264319Y486598D01*
X264266Y486703D01*
X264261Y486707D01*
X264258Y486713D01*
X264174Y486793D01*
X264090Y486875D01*
X264084Y486879D01*
X264080Y486882D01*
X264063Y486890D01*
X263943Y486956D01*
X261736Y487870D01*
X259270Y490336D01*
X257936Y493557D01*
X257936Y497043D01*
X259270Y500264D01*
X261736Y502730D01*
X264957Y504064D01*
X268443Y504064D01*
X271664Y502730D01*
X274130Y500264D01*
X275464Y497043D01*
X275464Y493557D01*
X274130Y490336D01*
X271664Y487870D01*
X269457Y486956D01*
X269357Y486894D01*
X269257Y486835D01*
X269253Y486830D01*
X269248Y486826D01*
X269173Y486736D01*
X269097Y486648D01*
X269095Y486642D01*
X269091Y486637D01*
X269049Y486529D01*
X269005Y486419D01*
X269004Y486412D01*
X269003Y486407D01*
X269002Y486389D01*
X268987Y486253D01*
X268987Y468953D01*
X254947Y454913D01*
X236982Y454913D01*
X236962Y454910D01*
X236943Y454912D01*
X236841Y454890D01*
X236739Y454874D01*
X236722Y454864D01*
X236702Y454860D01*
X236613Y454807D01*
X236522Y454758D01*
X236508Y454744D01*
X236491Y454734D01*
X236424Y454655D01*
X236352Y454580D01*
X236344Y454562D01*
X236331Y454547D01*
X236292Y454451D01*
X236249Y454357D01*
X236247Y454337D01*
X236239Y454319D01*
X236221Y454152D01*
X236221Y454043D01*
X231757Y449579D01*
X225443Y449579D01*
G37*
%LPD*%
%LPC*%
G36*
X208029Y485012D02*
X208029Y485012D01*
X207136Y485905D01*
X207136Y501647D01*
X208029Y502540D01*
X223771Y502540D01*
X224664Y501647D01*
X224664Y485905D01*
X223771Y485012D01*
X208029Y485012D01*
G37*
%LPD*%
%LPC*%
G36*
X124647Y600789D02*
X124647Y600789D01*
X121409Y602131D01*
X118931Y604609D01*
X117589Y607847D01*
X117589Y611353D01*
X118931Y614591D01*
X121409Y617069D01*
X124647Y618411D01*
X128153Y618411D01*
X131391Y617069D01*
X133869Y614591D01*
X135211Y611353D01*
X135211Y607847D01*
X133869Y604609D01*
X131391Y602131D01*
X128153Y600789D01*
X124647Y600789D01*
G37*
%LPD*%
%LPC*%
G36*
X64647Y600789D02*
X64647Y600789D01*
X61409Y602131D01*
X58931Y604609D01*
X57589Y607847D01*
X57589Y611353D01*
X58931Y614591D01*
X61409Y617069D01*
X64647Y618411D01*
X68153Y618411D01*
X71391Y617069D01*
X73869Y614591D01*
X75211Y611353D01*
X75211Y607847D01*
X73869Y604609D01*
X71391Y602131D01*
X68153Y600789D01*
X64647Y600789D01*
G37*
%LPD*%
%LPC*%
G36*
X200043Y449579D02*
X200043Y449579D01*
X195579Y454043D01*
X195579Y460357D01*
X200043Y464821D01*
X206357Y464821D01*
X210821Y460357D01*
X210821Y454043D01*
X206357Y449579D01*
X200043Y449579D01*
G37*
%LPD*%
D10*
X114300Y330200D03*
D11*
X64262Y330200D03*
D10*
X241300Y355600D03*
D11*
X241300Y305562D03*
D12*
X594360Y581660D03*
X464820Y581660D03*
D13*
X266700Y623824D03*
D14*
X266700Y495300D03*
D13*
X215900Y493776D03*
D14*
X215900Y622300D03*
D13*
X23876Y419100D03*
D14*
X152400Y419100D03*
D13*
X153924Y482600D03*
D14*
X25400Y482600D03*
D15*
X228600Y431800D03*
X228600Y457200D03*
X203200Y457200D03*
D16*
X133300Y139700D03*
D17*
X177800Y177800D03*
X177800Y101600D03*
D18*
X53400Y576600D03*
D19*
X150400Y575100D03*
X150400Y644100D03*
D20*
X25400Y369062D02*
X64262Y330200D01*
X25400Y417576D02*
X23876Y419100D01*
X25400Y417576D02*
X25400Y369062D01*
X266700Y469900D02*
X266700Y495300D01*
X266700Y469900D02*
X254000Y457200D01*
X228600Y457200D01*
X266700Y623824D02*
X582676Y623824D01*
X596900Y609600D01*
X596900Y584200D01*
X594360Y581660D01*
X120900Y644100D02*
X53400Y576600D01*
X120900Y644100D02*
X150400Y644100D01*
X159500Y635000D01*
X203200Y635000D02*
X215900Y622300D01*
X203200Y635000D02*
X159500Y635000D01*
X228600Y431800D02*
X241300Y419100D01*
X241300Y355600D01*
X228600Y431800D02*
X165100Y431800D01*
X139700Y457200D01*
X139700Y468376D01*
X153924Y482600D01*
X156960Y581660D02*
X464820Y581660D01*
X156960Y581660D02*
X150400Y575100D01*
X117100Y574300D02*
X25400Y482600D01*
X117100Y574300D02*
X149600Y574300D01*
X150400Y575100D01*
X25400Y482600D02*
X88900Y419100D01*
X152400Y419100D01*
X152400Y304800D01*
X165100Y292100D01*
X227838Y292100D01*
X241300Y305562D01*
X241300Y165100D01*
X177800Y101600D01*
X133300Y139700D02*
X114300Y120700D01*
X114300Y101600D01*
X139700Y76200D01*
X165100Y76200D01*
X177800Y88900D01*
X177800Y101600D01*
X177800Y177800D02*
X114300Y241300D01*
X114300Y330200D01*
M02*
